<svg width="44" height="10" viewBox="0 0 44 10" fill="none" xmlns="http://www.w3.org/2000/svg">
<path d="M6.9 8.808C6.3 9.064 5.68 9.192 5.04 9.192C4.2 9.192 3.436 8.996 2.748 8.604C2.068 8.204 1.532 7.66 1.14 6.972C0.748 6.284 0.552 5.528 0.552 4.704C0.552 3.88 0.748 3.124 1.14 2.436C1.532 1.748 2.068 1.208 2.748 0.816C3.436 0.415999 4.2 0.215999 5.04 0.215999C5.88 0.215999 6.64 0.415999 7.32 0.816C8.008 1.208 8.548 1.748 8.94 2.436C9.332 3.124 9.528 3.88 9.528 4.704C9.528 5.36 9.404 5.972 9.156 6.54C8.908 7.108 8.56 7.6 8.112 8.016L8.772 9L7.572 9.804L6.9 8.808ZM5.04 7.656C5.352 7.656 5.676 7.596 6.012 7.476L5.076 6.072L6.276 5.256L7.212 6.672C7.436 6.424 7.608 6.132 7.728 5.796C7.848 5.46 7.908 5.096 7.908 4.704C7.908 4.128 7.78 3.616 7.524 3.168C7.276 2.72 6.932 2.372 6.492 2.124C6.052 1.876 5.568 1.752 5.04 1.752C4.512 1.752 4.028 1.876 3.588 2.124C3.156 2.372 2.812 2.72 2.556 3.168C2.308 3.616 2.184 4.128 2.184 4.704C2.184 5.28 2.308 5.792 2.556 6.24C2.812 6.688 3.156 7.036 3.588 7.284C4.028 7.532 4.512 7.656 5.04 7.656ZM13.9421 0.408H15.5621V9H13.9421V0.408ZM20.3963 0.408H22.0163V7.464H25.6523V9H20.3963V0.408ZM29.8857 0.408H31.5057V9H29.8857V0.408ZM36.3399 0.408H38.2239L41.6799 6.168H41.7759L41.6799 4.512V0.408H43.2879V9H41.5839L37.9359 2.916H37.8399L37.9359 4.572V9H36.3399V0.408Z" fill="white"/>
</svg>
