<?xml version="1.0" encoding="utf-8"?>
<!-- Generator: Adobe Illustrator 23.0.6, SVG Export Plug-In . SVG Version: 6.00 Build 0)  -->
<svg width="50" version="1.1" id="Layer_1" xmlns="http://www.w3.org/2000/svg" xmlns:xlink="http://www.w3.org/1999/xlink" x="0px" y="0px"
	 viewBox="0 0 504 461" style="enable-background:new 0 0 504 461;" xml:space="preserve">
<style type="text/css">
	.st0{fill:#FFFFFF;}
	.st1{fill:#231F20;}
</style>
<g>
	<g>
		<g>
			<path class="st0" d="M370.3,372.7c8.4-3.4,16.2-7.5,23.5-13c8.1-6.1,16.7-13.2,19.4-23.5c0.7-2.8,0.9-5.9,0.2-8.8
				c-1-3.7-3.5-6.7-6.7-8.7c-2.6-1.6-5.9-2.2-8.7-3.3c1,0.4,2,0.8,3,1.3c-3.6-1.5-6.9-3.5-10-5.8c0.8,0.7,1.7,1.3,2.5,2
				c-1.4-1.1-2.7-2.3-3.8-3.7c0.7,0.8,1.3,1.7,2,2.5c-0.6-0.8-1.1-1.7-1.5-2.6c0.4,1,0.8,2,1.3,3c-0.8-2-1.2-4.1-1.5-6.3
				c0.1,1.1,0.3,2.2,0.4,3.3c-0.7-5.1-0.7-10.2,0-15.3c-0.1,1.1-0.3,2.2-0.4,3.3c0.7-5.3,2.2-10.5,4.2-15.5c-0.4,1-0.8,2-1.3,3
				c2-4.7,4.6-9.1,7.7-13.2c-0.7,0.8-1.3,1.7-2,2.5c2.4-3.1,5.1-6,8.2-8.6c2.9-2.5,6-4.8,8.7-7.6c3.7-3.9,7-8.8,8-14.1
				c0.8-4.3,0.7-8.1-0.4-12.4c-0.6-2.3-1.4-4.5-2.2-6.8c-1.6-5-2.9-10.1-3.6-15.4c0.1,1.1,0.3,2.2,0.4,3.3c-0.6-4.3-0.7-8.7-0.1-13
				c-0.1,1.1-0.3,2.2-0.4,3.3c0.4-3.2,1.3-6.2,2.5-9.2c-0.4,1-0.8,2-1.3,3c2.2-5,5.4-9.4,7.9-14.3c1.6-3.1,3.1-6.4,4-9.8
				c0.5-2.1,0.8-4.4,1-6.6c0.2-2.4-0.3-4.7-0.6-7c-0.5-2.9-3.3-6.1-5.7-7.5c-2.7-1.6-6.6-2.2-9.6-1.3c-3,1-5.9,2.9-7.5,5.7
				c-0.4,1-0.8,2-1.3,3c-0.6,2.2-0.6,4.4,0,6.6c0,0.3,0.1,0.5,0.1,0.8c-0.1-1.1-0.3-2.2-0.4-3.3c0.1,1.4,0.1,2.7,0,4
				c0.1-1.1,0.3-2.2,0.4-3.3c-0.3,2.1-0.9,4.1-1.7,6c0.4-1,0.8-2,1.3-3c-1.6,3.7-3.8,7.1-5.9,10.6c-2.6,4.5-5,9.2-6.3,14.3
				c-2.8,10.7-1.7,22,0.9,32.6c0.6,2.5,1.4,5,2.1,7.5c0.9,2.7,1.9,5.3,2.3,8c-0.1-1.1-0.3-2.2-0.4-3.3c0.2,1.3,0.2,2.5,0,3.7
				c0.1-1.1,0.3-2.2,0.4-3.3c-0.2,1-0.4,2-0.8,2.9c0.4-1,0.8-2,1.3-3c-0.6,1.4-1.3,2.6-2.2,3.8c0.7-0.8,1.3-1.7,2-2.5
				c-4.1,5.3-10,8.8-14.6,13.6c-5.3,5.6-9.9,12.1-13.1,19.1c-1.8,4-3.5,8.1-4.6,12.4c-1.1,4.3-1.8,8.7-2.2,13.1
				c-0.3,3.4-0.3,6.9,0,10.3c0.5,5.7,1.3,11.2,4.1,16.2c1.4,2.6,3.6,5.1,5.9,7c2.4,1.9,4.8,3.8,7.4,5.4c1.8,1.1,3.8,2.1,5.7,2.9
				c1.8,0.8,3.7,1.6,5.6,2.3c1,0.4,2,0.6,3,1c-1-0.4-2-0.8-3-1.3c0.2,0.1,0.4,0.2,0.6,0.3c-0.8-0.7-1.7-1.3-2.5-2
				c0.2,0.1,0.3,0.3,0.5,0.5c-0.7-0.8-1.3-1.7-2-2.5c0.1,0.1,0.1,0.2,0.2,0.3c-0.4-1-0.8-2-1.3-3c0,0.1,0.1,0.2,0.1,0.4
				c-0.1-1.1-0.3-2.2-0.4-3.3c0,0.3,0,0.5,0,0.8c0.1-1.1,0.3-2.2,0.4-3.3c-0.1,1-0.5,2-0.9,3c0.4-1,0.8-2,1.3-3
				c-0.7,1.6-1.6,3-2.6,4.4c0.7-0.8,1.3-1.7,2-2.5c-2.8,3.6-6.4,6.6-10.1,9.4c0.8-0.7,1.7-1.3,2.5-2c-6.2,4.7-12.9,8.6-20,11.7
				c1-0.4,2-0.8,3-1.3c-0.3,0.1-0.5,0.2-0.8,0.3c-1.6,0.4-3,1.1-4.3,2.2c-1.4,0.9-2.4,2.1-3.2,3.5c-1.6,2.7-2.2,6.6-1.3,9.6
				c1,3,2.9,5.9,5.7,7.5C363.5,372.9,367.3,373.9,370.3,372.7L370.3,372.7z"/>
		</g>
	</g>
	<g>
		<g>
			<path d="M366,352.2c8.7-2.4,16.9-6.3,24.2-11.5c3.4-2.5,7.7-6,5.5-10.7c-1.7-3.5-5.9-4.4-9.4-5.1c-3.4-0.7-6.9-1.4-9.8-3.3
				c-3.2-1.9-4.5-5.1-4.6-8.7c-0.2-4.8,0.4-9.6,0.8-14.4c0.3-4.7,0.6-9.5,1-14.2c0.4-4,1.1-8.1,2.9-11.7c1.6-3.3,4.1-5.8,7-8.1
				c5.6-4.5,12.1-7.7,16.6-13.4c2.7-3.5,4.6-7.8,3.4-12.2c-0.6-2.2-1.8-4.2-2.8-6.3c-1-2-1.8-4-2.6-6c-3.2-8.5-4.5-17.5-1.6-26.3
				c1.4-4.3,3.7-8.3,6-12.2c2.5-4.1,5.1-8.2,7.6-12.3c2.4-3.8,5.1-7.8,5.8-12.3c0.4-2.3,0.2-4.6-0.7-6.8c-0.7-1.7-1.9-3.2-3-4.7
				c-0.9-1.2-1.7-2.5-1.7-4c-1.3,0.7-2.5,1.4-3.8,2.2c9.2,5.3,15.8,14.8,14.9,25.7c-0.2,2.6-1,5.2-2.2,7.6c-1.4,2.7-3.2,5-4.7,7.7
				c-2.7,4.7-4,10-4,15.4c0,6.1,1.8,12.3,5.2,17.4c1,1.6,3.3,1.7,4.3,0c4.6-7.6,10.1-16.4,19.4-18.5c-1.1-0.8-2.1-1.6-3.2-2.4
				c-0.4,3.4-2.6,6.5-4.5,9.3c-2.2,3.4-4.2,6.9-4.6,11c-0.2,2.4,0.2,4.9,0.9,7.2c0.6,2.1,1.4,4.6,2.6,6.4c2.7,4,8.5,2.5,12.1,0.8
				c4.2-2,7.3-5.6,9-9.9c-1.6,0-3.2,0-4.8,0c1.3,7.7,1.3,16-1.6,23.4c-3,7.6-9.5,12.2-16.9,15c-3.9,1.5-7.9,2.4-11.9,3.6
				c-3.8,1.2-7.6,2.8-10,6.2c-1.3,1.9-1.7,4.1-2,6.3c-0.2,1.7-0.6,3.1-1.4,4.5c-1.5,2.5-3.8,4.5-6.1,6.5c-2.4,2.1-4.9,4.1-6.8,6.6
				c-2.1,2.7-4,6.8-2.8,10.2c0.8,2.3,3.1,4.1,4.7,5.8c1.8,1.9,3.7,3.7,5.5,5.6c1.8,1.8,3.5,3.6,5.3,5.4c1.6,1.6,3.3,3.2,4.6,5
				c2.4,3.1,3.4,6.9,2.9,10.8c-0.5,3.9-2.3,7.5-4.5,10.7c-2.2,3.2-5.2,6.4-8.9,7.9c-4.4,1.8-9.3,0.7-13.9,1.2
				c-4.1,0.5-7.6,2.3-10.9,4.7c-2.7,1.9-5.4,4.4-8.5,5.4c-1.2,0.4-2.9,0.8-4.1,0.1c-0.6-0.3-0.6-1.1-0.7-1.7c-0.2-1-0.2-2-0.3-3
				c-0.1-3.9,0.9-7.8,2.9-11.2c1-1.7,2.1-3.2,3.5-4.6c2.3-2.3-1.3-5.8-3.5-3.5c-3.2,3.2-5.5,7.2-6.8,11.5c-1.2,4.1-1.6,9-0.4,13.2
				c1.4,4.7,7,5.3,11.1,3.9c3.6-1.3,6.5-3.7,9.5-5.9c1.5-1.1,3.1-2.2,4.8-2.9c1.9-0.9,4-1.1,6.1-1.1c5-0.1,10,0.3,14.6-2.1
				c4.1-2.1,7.4-5.8,10-9.6c2.5-3.6,4.3-7.8,4.9-12.2c0.6-4.5-0.2-9.1-2.7-12.9c-2.7-4.2-6.7-7.6-10.2-11.2
				c-1.9-1.9-3.8-3.8-5.6-5.7c-0.9-0.9-1.8-1.9-2.7-2.8c-0.7-0.7-1.8-1.5-2.1-2.4c-0.4-1.3,0.5-3.1,1-4c0.8-1.4,1.5-2.3,2.7-3.4
				c4.7-4.7,11.2-8.4,13.1-15.2c0.6-2.1,0.3-4.5,1.4-6.5c0.8-1.5,2.3-2.5,3.8-3.3c3.6-1.8,7.8-2.5,11.6-3.7
				c8.5-2.7,16.8-6.7,21.7-14.4c4.6-7.3,5.7-16.4,5.1-24.8c-0.2-2.2-0.5-4.4-0.8-6.6c-0.2-1.1-1.4-1.8-2.4-1.8c-1.2,0-2,0.8-2.4,1.8
				c-1.1,2.8-3.3,5.1-5.9,6.5c-1.3,0.7-2.7,1.2-4.2,1.4c-0.5,0.1-1.4,0.3-1.9,0c-0.5-0.3-0.7-1.3-0.9-1.7c-1.4-3.4-2.6-7.3-1.6-11
				c0.8-3,2.8-5.6,4.5-8.2c2.1-3.2,3.9-6.5,4.3-10.4c0.2-1.7-1.7-2.7-3.2-2.4c-10.6,2.4-17.1,12.1-22.4,20.8c1.4,0,2.9,0,4.3,0
				c-6-8.9-5.8-20.5-0.1-29.5c1.7-2.6,3.5-5.2,4.7-8.1c1.1-2.7,1.7-5.6,1.9-8.6c0.4-5.8-1.2-11.7-4.1-16.6
				c-3.2-5.4-7.9-9.7-13.3-12.8c-1.6-0.9-3.8,0.2-3.8,2.2c0,4,2.8,6.5,4.6,9.7c2.1,3.6,0.4,7.6-1.4,10.9
				c-4.5,8.2-10.2,15.7-14.3,24.1c-2,4.1-3.5,8.5-4.2,13.1c-0.6,4.5-0.3,9,0.6,13.4c0.9,4.5,2.5,8.9,4.3,13.2c0.9,2,1.9,4,2.9,6
				c0.9,1.8,1.2,3.5,0.6,5.5c-1,3.3-3.7,6-6.2,8.2c-2.6,2.2-5.4,4-8.2,6c-2.9,2-5.8,4.2-8.2,6.8c-2.8,3.1-4.7,6.7-5.8,10.7
				c-1.1,4.1-1.5,8.4-1.8,12.6c-0.4,5-0.7,10-1,15c-0.3,4.5-0.9,9,0,13.5c0.8,4,3.1,7.3,6.5,9.4c3.1,1.9,6.8,2.9,10.3,3.7
				c1.7,0.4,3.4,0.6,5,1.2c0.9,0.3,2.2,1,2.2,1.8c0,1.5-2.4,2.9-3.4,3.7c-1.8,1.3-3.6,2.5-5.4,3.6c-3.7,2.2-7.5,4.1-11.5,5.6
				c-2,0.8-4.1,1.4-6.2,2C361.6,348.2,362.9,353,366,352.2L366,352.2z"/>
		</g>
	</g>
	<g>
		<path class="st0" d="M287.8,386.8c1,3.8,4.4,8.1,8.1,6.8c6.4-2.1,4.6-9.2,13-6.9c3.5,1,6.9,2.3,10.2,3.8c1.9,0.9,3.8,1.9,4.8,3.7
			c1,1.8,0.6,4.5-1.3,5.3c5.1,2.2,11.7-3,10.7-8.5c3.9-0.3,7.3,2.1,10.8,3.9c3.4,1.8,8.1,2.8,10.9,0.1c8.1-7.8,7.7-19.1,7.6-29.5
			c0-3.4-0.1-7,1.2-10.1c0.8-1.9,2-3.7,3.3-5.3c4.1-5.5,8.1-11,12.2-16.5c-7.5-0.9-15,7.7-21.7,4.2c7-5.8,10.2-15.8,7.9-24.6
			c-4,4.5-10.2,6.9-16.1,6.2c2.4-4.9,4.7-9.7,7.1-14.6c1.3-2.6,2.3-6.4-0.2-8c-4,4.5-9.8,7.4-15.8,7.9c6.6-6.6,10.2-16,9.7-25.3
			c-4.9,4.8-11.2,8.2-18,9.5c4.9-6.6,7.1-15.1,6.2-23.2c-4.2,5.5-11.1,8.9-18.1,8.9c6.4-6,9.5-15.3,8-24c-4.9,3.8-10.9,6.1-17,6.5
			c5.9-5.3,10.3-12.3,12.4-20c-6.5,0.1-13,0.2-19.4,0.3c0.3,0.9,0.7,1.9,1,2.8c-3-8.5-3.2-18-0.5-26.6c0.3-1,0.7-2.1,0.4-3.1
			c-0.3-1.3-1.5-2.3-2.6-3c-6.5-4.3-14-6.9-21.7-7.6c-2.4-0.2-5.1-0.1-6.9,1.5c-2.9,2.7-1.4,7.6-2.7,11.4c-0.8,2.4-2.7,4.3-4.5,6.1
			c-8.1,7.9-16,12.9-25.6,18.4c-8.7,5-7.8,13.3-4.9,21.8c0.8,2.5,1,5.6-0.7,7.6c10.4,4,20.8,8,30.2,14c9.4,6,17.7,14.1,22,24.3
			c0.6,1.4,1.1,2.9,1.1,4.4c0,2.4-1.2,4.7-2.3,6.8c-3.7,7-6.8,15.2-4.2,22.6c1,2.8,2.7,5.2,3.9,7.9
			C291.7,359.8,284.3,373.8,287.8,386.8z"/>
	</g>
	<g>
		<g>
			<path d="M353.4,389.5c1.4-4.9,2-10,2.3-15.1c0.1-2.5,0.2-5.1,0.2-7.6c0-2.4-0.1-4.9,0.2-7.2c0.6-4.8,4.1-8.5,6.9-12.3
				c3.1-4.2,6.2-8.4,9.3-12.6c1.2-1.7-0.5-3.6-2.2-3.8c-4.1-0.4-7.9,1.4-11.5,3c-1.6,0.7-3.2,1.4-4.9,1.8c-1.4,0.3-2.8,0.4-4.1-0.3
				c0.2,1.3,0.3,2.6,0.5,3.9c7.6-6.5,11-17.3,8.6-27c-0.4-1.8-2.9-2.5-4.2-1.1c-3.7,4.1-8.9,6-14.3,5.5c0.7,1.3,1.4,2.5,2.2,3.8
				c2.4-4.9,4.9-9.8,7.2-14.8c1.7-3.7,2.7-8.5-1.2-11.2c-0.9-0.6-2.3-0.4-3,0.4c-3.6,4-8.6,6.7-14,7.2c0.6,1.4,1.2,2.8,1.8,4.3
				c7-7.1,10.9-17.1,10.5-27.1c-0.1-2.1-2.7-3.3-4.3-1.8c-4.7,4.5-10.5,7.6-16.9,8.9c0.9,1.2,1.9,2.4,2.8,3.7
				c5.1-7,7.4-15.9,6.5-24.5c-0.1-1-0.5-1.9-1.5-2.3c-0.8-0.3-2.1-0.3-2.7,0.5c-3.9,5-9.9,8.1-16.3,8.2c0.6,1.4,1.2,2.8,1.8,4.3
				c7.1-6.8,10.2-16.8,8.7-26.4c-0.2-1.5-2.5-2.4-3.7-1.5c-4.6,3.5-10,5.7-15.8,6.2c0.6,1.4,1.2,2.8,1.8,4.3
				c6.2-5.6,10.8-13,13.1-21.1c0.4-1.5-0.8-3.2-2.4-3.2c-6.5,0.1-13,0.2-19.4,0.3c-1.5,0-3,1.6-2.4,3.2c0.3,0.9,0.7,1.9,1,2.8
				c0.4,1.3,1.7,2.1,3.1,1.7c1.2-0.3,2.2-1.8,1.7-3.1c-1.6-4.7-2.4-9.5-2.3-14.4c0.1-2.3,0.3-4.7,0.8-6.9c0.5-2.3,1.8-4.9,1.6-7.3
				c-0.1-2.7-2-4.4-4.1-5.8c-2-1.3-4.1-2.5-6.3-3.5c-4.4-2-9.1-3.4-13.9-4c-4.4-0.6-9.4-0.8-12.2,3.3c-2.3,3.3-1.1,7.4-2.2,11.1
				c-0.6,2-2.2,3.5-3.7,4.9c-1.5,1.5-3.1,3-4.7,4.5c-3.2,3-6.5,5.8-10,8.2c-3.9,2.7-8.2,4.8-12.8,5.9c-4,0.9-10,1-10.3,6.5
				c-0.2,3.2,4.9,3.2,5,0c0,0.1,0.2-0.2-0.1,0.1c0.2-0.2,0.2-0.2,0.5-0.4c0.6-0.3,1.3-0.5,2.1-0.6c1.8-0.4,3.7-0.6,5.5-1.1
				c4-1.1,7.7-2.9,11.2-5.1c3.6-2.2,6.9-4.9,10-7.7c3.1-2.7,6.2-5.5,9-8.6c1.4-1.6,2.7-3.4,3.3-5.5c0.5-1.8,0.6-3.7,0.7-5.5
				c0.1-1.4,0.1-3.1,1-4.2c1-1.1,2.7-1.2,4.1-1.1c4.3,0.1,8.6,1.2,12.6,2.6c2,0.7,3.9,1.6,5.8,2.6c1,0.5,1.9,1.1,2.8,1.7
				c0.6,0.4,1.7,0.9,2,1.7c0.3,0.8-0.4,2.1-0.6,2.9c-0.4,1.2-0.6,2.5-0.9,3.7c-0.5,2.6-0.8,5.2-0.8,7.8c-0.1,5.3,0.7,10.5,2.5,15.5
				c1.6-0.4,3.2-0.9,4.8-1.3c-0.3-0.9-0.7-1.9-1-2.8c-0.8,1.1-1.6,2.1-2.4,3.2c6.5-0.1,13-0.2,19.4-0.3c-0.8-1.1-1.6-2.1-2.4-3.2
				c-2.1,7.3-6.2,13.8-11.8,18.9c-1.5,1.4-0.4,4.4,1.8,4.3c6.6-0.5,13-2.8,18.3-6.9c-1.2-0.5-2.4-1-3.7-1.5
				c1.3,7.8-1.7,16.1-7.4,21.6c-1.6,1.5-0.4,4.3,1.8,4.3c7.6-0.1,15.1-3.6,19.8-9.7c-1.4-0.6-2.8-1.2-4.3-1.8
				c0.8,7.8-1.2,15.6-5.9,22c-1.4,1.9,0.9,4.1,2.8,3.7c7.2-1.5,13.8-5,19.1-10.1c-1.4-0.6-2.8-1.2-4.3-1.8c0.4,8.7-2.9,17.3-9,23.5
				c-1.4,1.4-0.5,4.5,1.8,4.3c6.7-0.7,13-3.6,17.5-8.7c-1,0.1-2,0.3-3,0.4c0.2,0.1,0.3,0.4,0.3,0.5c0.1,0.7,0,1.3-0.2,1.9
				c-0.4,1.6-1.2,3.1-2,4.6c-2,4.1-3.9,8.1-5.9,12.2c-0.9,1.8,0.2,3.6,2.2,3.8c6.6,0.7,13.4-2,17.9-7c-1.4-0.4-2.8-0.7-4.2-1.1
				c2,8.1-1,16.8-7.3,22.1c-1.2,1-0.9,3.2,0.5,3.9c4,2,8.1,1.1,12-0.6c3.5-1.5,7.1-3.6,11-3.2c-0.7-1.3-1.4-2.5-2.2-3.8
				c-2.5,3.3-4.9,6.7-7.4,10c-2.3,3.2-4.9,6.3-7,9.6c-2.1,3.5-2.6,7.3-2.7,11.3c0,3.9,0,7.8-0.2,11.7c-0.3,4.5-0.9,9-2.1,13.3
				C347.8,391.3,352.6,392.6,353.4,389.5L353.4,389.5z"/>
		</g>
	</g>
	<g>
		<g>
			<path d="M218.6,240.7c-3.5,3.3-4.9,8.1-4,12.7c0.6-1,1.2-2.1,1.7-3.1c-4.4,0.7-8.3,4.1-9.5,8.4c-1.2,4.3,0.3,9.3,3.7,12.2
				c0-1.2,0-2.4,0-3.5c-3.7,3.4-5.9,8.2-6.2,13.2c-0.4,5.7,2.8,10.4,3.8,15.8c1,5.7,0.1,11.7,0.4,17.5c0.3,5.5,1.7,10.8,4.4,15.5
				c2.7,4.7,6.4,8.5,10.8,11.6c4.3,3,9.1,5.3,13.5,8.1c4,2.5,7.4,5.6,10,9.6c2.6,3.9,4.5,8.2,6.8,12.3c1.1,1.8,2,4.1,1.7,6.2
				c-0.3,2.1-1.8,2.7-3.6,3.5c-2.4,1-4.8,2.2-5.6,4.9c-0.4,1.3-0.3,2.7-0.2,4c0.1,0.8,0.3,2.1-0.1,2.5c-2.2,2.4,1.4,5.9,3.5,3.5
				c1.8-2,1.6-4.2,1.5-6.7c-0.1-0.8-0.1-1.7,0.2-2.2c0.3-0.4,1.1-0.8,1.7-1c2.1-0.9,4.2-1.6,5.7-3.4c1.5-1.9,2.1-4.3,1.9-6.6
				c-0.4-4.8-3.5-9-5.7-13.2c-2.2-4.1-4.5-8.1-7.6-11.4c-7.2-7.7-18-10.4-25.4-17.7c-3.5-3.5-6.1-7.9-7.4-12.7
				c-1.5-5.5-1-11.2-1-16.8c0-3.5-0.2-7-1-10.3c-0.8-3-2.3-5.8-2.9-8.9c-1.1-4.9,0.9-10.1,4.5-13.4c0.9-0.9,1-2.7,0-3.5
				c-2.1-1.8-3.2-4.6-2.4-7.3c0.8-2.7,3.3-4.5,6-4.9c1.4-0.2,2-1.9,1.7-3.1c-0.5-2.9,0.6-5.9,2.7-7.9
				C224.4,242.1,220.9,238.5,218.6,240.7L218.6,240.7z"/>
		</g>
	</g>
	<g>
		<path class="st0" d="M197.7,176.6c-2.3-0.2-4.2-1.7-5.8-3.4c-1.8-2-3.2-4.5-3.2-7.1c0-3.5,2.4-6.7,5.4-8.4s6.6-2.2,10.1-2.2"/>
		<g>
			<path d="M197.7,174.1c-2-0.2-3.9-2.3-5-3.9c-1.3-2-2-4.2-1-6.5c2.1-4.6,7.9-5.6,12.5-5.7c3.2-0.1,3.2-5.1,0-5
				c-3.8,0.1-7.6,0.6-11,2.4c-3,1.6-5.5,4.3-6.5,7.6c-1.1,3.5-0.1,7.2,2,10.2c2.2,3.1,5.1,5.6,9,6c1.3,0.1,2.5-1.2,2.5-2.5
				C200.2,175.1,199.1,174.2,197.7,174.1L197.7,174.1z"/>
		</g>
	</g>
	<g>
		<path class="st0" d="M247,139c-0.9-4.6,2.7-8.9,6.3-11.9c2.7-2.3,5.9-4.5,9.5-4.6c2.6-0.1,5,0.9,7.4,1.9c1.7,0.7,3.5,1.5,4.6,3.1
			c0.8,1.2,1.1,2.8,1,4.2c0,2.9-0.9,5.8-2.5,8.3c-3.1,4.7-8.6,7.7-10.5,13"/>
		<g>
			<path d="M249.4,138.3c-0.6-3.7,2.8-7,5.3-9.2c3-2.6,6.5-4.8,10.7-3.7c2,0.5,4.1,1.3,5.8,2.4c1.7,1,2,2.4,2,4.2
				c-0.1,4.1-2.2,7.3-5,10.1c-3.1,3.1-6.3,6-7.9,10.2c-0.5,1.3,0.5,2.7,1.7,3.1c1.4,0.4,2.6-0.5,3.1-1.7c1.4-3.9,5.3-6.5,8-9.5
				c3.5-3.9,5.7-9.1,5-14.4c-0.4-2.8-1.9-5-4.3-6.4c-2.2-1.3-4.8-2.3-7.3-2.9c-5.6-1.4-10.4,1.1-14.7,4.6c-4.4,3.6-8.3,8.6-7.3,14.6
				c0.2,1.3,1.9,2.1,3.1,1.7C249.1,141,249.6,139.6,249.4,138.3L249.4,138.3z"/>
		</g>
	</g>
	<g>
		<path class="st0" d="M199.9,223.6c1-2.8-2.6-5-5.5-5.7s-6.5-2.4-6.1-5.4c1-1.8,3.6-2.5,5.4-1.5c-2.6-2.4-4.9-5.3-6-8.6
			c-1.1-3.4-0.6-7.4,1.9-9.9c2.5-2.5,7.2-2.7,9.4,0c-2.1-8.5-1.7-17.4-1.3-26.1c0.2-3.5,0.4-7.1,1.6-10.5c1.5-4.3,4.6-7.8,7.7-11.2
			c2-2.2,4.1-4.3,6.6-6c2.2-1.5,4.7-2.5,7.2-3.3c17-5.4,36.7-1.2,49.9,10.7c3.4,3,8.5,7.5,10.3,11.7c2,4.7,0.7,10.2,3.4,15
			c1.7,3,4.3,5.5,5.9,8.6c2.2,4.3,4.4,10.5,5.3,15.2c1.3,6.8-0.3,13.8,1.5,20.6c0.5,1.7,1.2,3.5,0.7,5.3c-1.2,4.9-4.8,7.9-5.3,13.5
			c-0.6,5.7,0.4,11.5,3.5,16.5c-5.1-2-8.2-7.5-9-12.9c-0.8-5.4,1.3-10.5,1-15.7c-0.2-5-2.1-9.7-2-14.9c-1,6.1-3.8,11.9-5.4,17.8
			c-0.8,2.8-6.7,16.8-4.4,19.2c-3.6-3.7-4.2-9.4-4-14.6c0.3-9,1.9-17.6,2.1-26.7c-4.6-1-5.9,3.9-7.3,7c-4.3,9-9.8,18.1-18.5,22.9
			c-6.7,3.7-14.6,4.6-22.2,4.8c-3.4,0.1-7.8-0.9-8-4.2c-0.2-3.4,4.1-4.9,7.5-5.4c6.1-0.9,12.5-2.1,17.1-6.1c3-2.6,4.9-6.1,6.7-9.6
			c4.2-8.4,7.7-17.1,10.5-26.1c-4.2-0.8-7.3,3.5-9.7,7c-4.3,6.1-10.2,11-15.4,16.3c-1.2,1.2-2.4,2.5-3.7,3.5
			c-6.5,5-15.5,4.9-23.6,6.2c-1.8,0.3-3.7,2.2-5.3,1.6"/>
		<g>
			<path d="M202.3,224.3c1.2-4-2.3-6.9-5.6-8.3c-1.3-0.5-2.8-0.8-4-1.4c-0.6-0.3-1.1-0.6-1.5-1c-0.1-0.1-0.3-0.5-0.2-0.3
				c-0.1-0.3-0.1-0.3,0-0.7c-0.1,0.4-0.2,0.8-0.3,1.3c0.4-0.6,1.3-0.9,2-0.6c1.1,0.5,2.4,0.4,3.2-0.6c0.7-1,0.7-2.4-0.2-3.3
				c-3.2-3.1-6.7-7.3-5.6-12c0.4-1.7,1.3-3.3,3-3.9c1.6-0.6,3.3-0.4,4.4,1c1.7,2,4.7-0.2,4.2-2.4c-2-8.3-1.6-17-1.2-25.5
				c0.2-3.9,0.4-8,2.2-11.6c1.8-3.5,4.4-6.3,7-9.1c2.7-2.9,5.5-5.3,9.2-6.8c3.3-1.4,6.8-2.2,10.4-2.8c6.6-1,13.5-0.5,20,1.3
				c6.5,1.8,12.8,4.8,18.1,9.1c2.7,2.2,5.3,4.6,7.6,7.1c2.4,2.5,4.2,5.1,4.8,8.6c0.7,3.8,0.6,7.7,2.3,11.3c1.6,3.4,4.5,6,6.3,9.4
				c3.5,6.5,5.5,14.1,5.5,21.5c0,4.4-0.2,8.8,0.8,13.1c0.4,1.8,1.3,3.5,0.7,5.3c-0.4,1.5-1.1,2.8-1.9,4.1c-1.8,3.2-3.1,6.3-3.4,10
				c-0.3,3.9,0.1,7.9,1.4,11.6c0.6,1.9,1.5,3.7,2.5,5.5c0.9-1.2,1.9-2.4,2.8-3.7c-2.8-1.2-4.8-3.8-5.9-6.4
				c-1.5-3.4-1.6-6.9-1.1-10.5c0.6-4.2,1.2-8.1,0.6-12.3c-0.6-4-1.8-7.8-1.7-11.9c0-2.7-4.4-3.5-4.9-0.7c-0.7,4-2,7.8-3.4,11.6
				c-0.9,2.6-1.7,5.3-2.6,7.9c-1.5,4.3-3.3,8.7-4.1,13.2c-0.4,2.3-0.7,4.9,0.9,6.8c1.2-1.2,2.4-2.4,3.5-3.5
				c-4.1-4.5-3.5-11.5-3.1-17.1c0.5-7.5,1.7-14.9,1.8-22.4c0-1-0.8-2.2-1.8-2.4c-2.2-0.4-4.3-0.1-6.1,1.3c-1.4,1.1-2.2,2.7-3,4.3
				c-1.8,3.9-3.6,7.8-5.9,11.4c-2.4,3.9-5.3,7.5-8.8,10.4c-3.8,3.1-8.4,4.9-13.1,6c-2.5,0.5-5,0.8-7.5,1c-2.1,0.1-4.4,0.4-6.5,0.1
				c-0.6-0.1-1.6-0.3-2-0.5c-0.3-0.1-0.8-0.4-0.9-0.5c-0.1,0-0.3-0.3-0.3-0.5c-0.1-0.3,0-0.7,0.1-1c-0.1,0.1,0.3-0.4,0.5-0.5
				c0.1-0.1,0.7-0.4,1-0.6c1.7-0.8,3.7-1,5.6-1.3c2.4-0.4,4.8-0.8,7.1-1.5c4.9-1.5,9.1-4,12.3-8c3.6-4.7,6.1-10.4,8.4-15.8
				c2.5-5.9,4.8-11.8,6.6-18c0.4-1.2-0.4-2.9-1.7-3.1c-4.9-0.8-8.3,2.5-11.1,6.1c-1.4,1.8-2.6,3.7-4.1,5.4c-1.7,1.9-3.4,3.7-5.2,5.5
				c-1.8,1.7-3.5,3.4-5.3,5.1c-1.8,1.8-3.5,3.9-5.7,5.4c-3.7,2.6-8.2,3.6-12.6,4.2c-2.6,0.4-5.2,0.6-7.8,1c-1.4,0.2-2.6,0.4-3.8,1
				c-0.5,0.2-0.9,0.5-1.4,0.7c-0.2,0.1-0.2,0.1-0.5,0.2c-0.2,0.1-0.4,0-0.2,0c-3.1-0.9-4.4,4-1.3,4.8c2.4,0.7,4-0.8,6.2-1.5
				c2.1-0.7,4.5-0.7,6.6-0.9c4.8-0.6,9.6-1.3,14-3.3c4.7-2.1,8-6.1,11.6-9.6c3.6-3.5,7.2-6.9,10.3-10.8c1.6-1.9,2.9-4.1,4.5-6
				c1.1-1.2,2.7-2.9,4.5-2.6c-0.6-1-1.2-2.1-1.7-3.1c-1.7,5.5-3.6,10.9-5.9,16.1c-2.2,5-4.4,10.3-7.5,14.8
				c-2.8,4.1-6.9,6.4-11.6,7.7c-4.3,1.1-9.2,1-13.1,3.2c-2,1.1-3.5,2.9-3.7,5.2c-0.2,2.3,0.8,4.3,2.7,5.7c3.7,2.6,8.8,2,13,1.7
				c5.5-0.4,10.9-1.5,16-3.7c4.5-2,8.5-5.2,11.8-9c3.6-4.2,6.5-8.9,8.9-13.8c1-1.9,1.7-4,2.7-5.9c0.5-0.9,0.6-1.3,1.4-1.9
				c-0.3,0.2,0.1-0.1,0.2-0.1c0.2-0.1-0.2,0,0.2-0.1c0.2-0.1,0.6-0.1,1,0c-0.6-0.8-1.2-1.6-1.8-2.4c-0.2,8-1.4,15.9-1.9,23.8
				c-0.4,6.7-0.2,14,4.6,19.2c2.2,2.4,5.6-1.1,3.5-3.5c0.6,0.7,0-0.3,0.3,0.5c-0.1-0.2-0.1-0.8-0.1-0.1c0-0.5,0-1,0-1.5
				c0-0.1,0-0.3,0-0.4c0,0.3,0,0.3,0,0c0.1-0.3,0.1-0.6,0.2-0.9c0.1-0.7,0.3-1.4,0.5-2c0.7-2.9,1.7-5.6,2.7-8.4
				c0.9-2.6,1.7-5.2,2.6-7.8c1.6-4.6,3.4-9.1,4.2-13.9c-1.6-0.2-3.3-0.4-4.9-0.7c-0.1,4.5,1.3,8.8,1.9,13.2c0.6,4.4-0.7,8.7-1,13.1
				c-0.6,8,3.3,16.4,10.9,19.6c2.1,0.9,3.9-2,2.8-3.7c-2-3.3-3.1-7.1-3.3-10.9c-0.1-1.9-0.1-3.9,0.4-5.8c0.4-1.6,1.1-3,1.9-4.4
				c1.8-3.3,3.8-6.7,3.1-10.7c-0.4-2.1-1.1-4-1.4-6.1c-0.2-2.2-0.2-4.4-0.2-6.6c0-4.4-0.1-8.7-1.2-12.9c-1-3.8-2.3-7.6-3.9-11.2
				c-0.8-1.7-1.6-3.3-2.7-4.9c-1.1-1.6-2.4-3.1-3.5-4.7c-2.2-3.3-2.3-7-2.8-10.8c-0.5-4.1-2.1-7.4-4.8-10.6
				c-2.3-2.8-5.1-5.2-7.8-7.6c-5.6-4.9-12.2-8.5-19.2-10.8c-6.9-2.2-14.3-3-21.5-2.4c-7.9,0.7-16.1,2.9-22.1,8.2
				c-3.1,2.7-5.9,5.9-8.4,9.2c-2.5,3.4-4.3,7.1-4.9,11.3c-0.7,4.5-0.8,9.1-0.9,13.6c-0.1,4.5-0.1,8.9,0.4,13.4
				c0.3,2.3,0.7,4.5,1.2,6.7c1.4-0.8,2.8-1.6,4.2-2.4c-2.1-2.4-5.5-3.1-8.5-2.5c-3.3,0.7-5.7,3.2-6.9,6.3
				c-2.7,6.9,1.7,13.7,6.5,18.3c1-1.3,2-2.6,3-3.9c-2.6-1.2-5.7-0.9-7.8,1.2c-2.1,2.1-1.5,5.2,0.5,7.2c1.7,1.7,4.1,2.5,6.4,3.2
				c1,0.3,2,0.7,2.8,1.4c0.3,0.2,0.5,0.5,0.7,0.8c0.1,0.2,0.1,0,0.1,0.3c0-0.2,0-0.3-0.1,0.1C196.6,226,201.4,227.4,202.3,224.3
				L202.3,224.3z"/>
		</g>
	</g>
	<g>
		<path class="st0" d="M221.7,176.1c-0.2-1-0.6-2.1-0.6-3.1c0.1-9,26.4-12.6,15.5,2.3c-2.1,2.9-5.5,5.6-9.1,6.4
			C222.3,182.7,222.8,180.7,221.7,176.1z"/>
		<g>
			<path d="M224.1,175.4c-0.1-0.5-0.2-0.9-0.4-1.4c0-0.2-0.1-0.4-0.1-0.6c0.1,0.3,0-0.3,0-0.3c0-0.2,0-0.3,0-0.5
				c0-0.3-0.1,0.4-0.1,0.4c0-0.1,0-0.2,0.1-0.3c0.1-0.3,0.2-0.5,0.2-0.8c0,0.1-0.3,0.6,0,0.1c0.1-0.1,0.2-0.3,0.3-0.4
				c0.1-0.1,0.2-0.2,0.2-0.4c0.1-0.2-0.5,0.5,0,0.1c0.2-0.2,0.4-0.5,0.7-0.7c0.1-0.1,0.2-0.2,0.3-0.3c0.2-0.2,0.7-0.4,0,0
				c0.3-0.2,0.6-0.4,0.9-0.6c0.6-0.4,1.2-0.7,1.9-1c0.3-0.2-0.3,0.1-0.3,0.1c0.1,0,0.2-0.1,0.3-0.1c0.1-0.1,0.3-0.1,0.4-0.2
				c0.4-0.1,0.7-0.2,1.1-0.4c0.7-0.2,1.4-0.3,2.1-0.5c0.6-0.1-0.6,0.1,0,0c0.2,0,0.3,0,0.5,0c0.4,0,0.7,0,1.1-0.1c0.3,0,0.7,0,1,0
				c0.1,0,0.3,0,0.4,0c0.4,0-0.6-0.1-0.3,0c0.1,0,0.2,0,0.3,0.1c0.3,0.1,0.5,0.1,0.8,0.2c0.1,0,0.3,0.1,0.4,0.1
				c0.6,0.2-0.5-0.3-0.1,0c0.2,0.1,0.4,0.2,0.6,0.4c0.4,0.3-0.5-0.4-0.2-0.1c0.1,0.1,0.2,0.2,0.3,0.3c0.3,0.3-0.1-0.1-0.1-0.2
				c0,0.1,0.1,0.2,0.2,0.3c0.2,0.3,0,0.5-0.1-0.2c0,0.1,0.1,0.3,0.1,0.4c0.1,0.4-0.1,0.5,0-0.2c0,0.1,0,0.2,0,0.3c0,0.2,0,0.3,0,0.5
				c0,0.1,0,0.1,0,0.2c0,0.4,0.1-0.7,0-0.3c-0.1,0.3-0.1,0.7-0.3,1c-0.1,0.2-0.1,0.3-0.2,0.5c-0.1,0.4,0.1-0.2,0.1-0.2
				c0,0.1-0.2,0.4-0.2,0.4c-0.4,0.9-1,1.8-1.6,2.6c-0.3,0.4-0.6,0.8-1.2,1.4c-0.6,0.6-1.2,1.2-1.9,1.7c0,0-0.4,0.3-0.1,0.1
				c-0.2,0.2-0.4,0.3-0.6,0.4c-0.4,0.3-0.8,0.5-1.2,0.7c-0.2,0.1-0.4,0.2-0.6,0.3c-0.1,0-0.7,0.3-0.3,0.2c-0.4,0.2-0.8,0.3-1.2,0.4
				c-0.4,0.1-0.8,0.2-1.3,0.3c-0.2,0-0.3,0.1-0.5,0.1c0.4-0.1,0.2,0-0.1,0c-0.3,0-0.5,0-0.8,0c-0.1,0-0.6,0-0.1,0c0.5,0.1,0,0-0.1,0
				c-0.2-0.1-0.5-0.2,0.2,0.1c-0.1,0-0.2-0.1-0.3-0.2c0.6,0.5,0.4,0.3,0.3,0.2c-0.3-0.3,0.1,0.1,0.1,0.2c0-0.1-0.1-0.2-0.2-0.3
				c-0.2-0.3,0.1-0.3,0.1,0.2c0-0.2-0.2-0.4-0.2-0.6C224.5,177.9,224.4,176.6,224.1,175.4c-0.3-1.3-1.8-2.2-3.1-1.7
				c-1.3,0.4-2.1,1.7-1.7,3.1c0.6,2.4,0.7,5.3,2.9,6.8c1,0.7,2.4,0.9,3.7,0.8c1.9-0.2,3.7-0.7,5.4-1.5c3.3-1.6,6.1-4.3,8.1-7.4
				c1.2-1.8,2.2-3.9,2.3-6.1c0.1-1.7-0.6-3.5-1.9-4.7c-1.4-1.3-3.1-1.8-5-2c-3.5-0.4-7.2,0.5-10.3,2.1c-1.8,0.9-3.4,2.2-4.6,3.9
				c-0.5,0.8-1,1.6-1.2,2.5c-0.4,1.9,0,3.7,0.5,5.5c0.3,1.3,1.8,2.2,3.1,1.7C223.6,178,224.4,176.8,224.1,175.4z"/>
		</g>
	</g>
	<g>
		<path class="st0" d="M207.2,194.4c1.9-3.4,6.2-5.2,10-4.4c3.8,0.8,6.8,4.3,7.1,8.2c0.1,0.9,0,1.9-0.3,2.8
			c-0.6,1.5-1.9,2.6-3.1,3.7"/>
		<g>
			<path d="M209.4,195.7c0.2-0.3,0.3-0.6,0.5-0.8c-0.3,0.4,0.2-0.2,0.2-0.2c0.2-0.2,0.5-0.4,0.7-0.7c0.4-0.3-0.2,0.1,0.3-0.2
				c0.5-0.3,1-0.6,1.5-0.8c0.3-0.1,0.3-0.1,0.1,0c0.1,0,0.2-0.1,0.3-0.1c0.3-0.1,0.5-0.2,0.8-0.2c0.2-0.1,0.5-0.1,0.7-0.1
				c-0.5,0.1,0.4,0,0.5,0c0.2,0,0.5,0,0.7,0c0.2,0,0.3,0,0.5,0c-0.3,0-0.2,0,0.1,0c0.2,0.1,0.5,0.1,0.7,0.2c0.2,0,0.3,0.1,0.5,0.1
				c0.3,0.1,0.3,0.1,0.2,0c-0.1-0.1-0.1,0,0.1,0.1c0.1,0.1,0.3,0.1,0.4,0.2c0.2,0.1,0.5,0.3,0.7,0.4c0.1,0.1,0.2,0.1,0.3,0.2
				c-0.2-0.1-0.2-0.1,0.1,0.1c0.2,0.2,0.4,0.3,0.5,0.5c0.2,0.2,0.4,0.5,0.7,0.7c-0.3-0.3,0.2,0.3,0.2,0.3c0.3,0.5,0.6,1,0.8,1.5
				c-0.2-0.4,0.1,0.3,0.1,0.4c0.1,0.3,0.1,0.5,0.2,0.8c0.1,0.6,0-0.2,0,0.3c0,0.4,0,0.8,0,1.1c0,0.4,0,0.1-0.1,0.5
				c0,0.2-0.1,0.4-0.2,0.5c0.1-0.2,0-0.1-0.1,0.1c-0.3,0.5-0.4,0.7-1,1.2c-0.5,0.5-0.9,0.9-1.4,1.3c-1,0.9-0.9,2.6,0,3.5
				c1,1,2.5,0.9,3.5,0c2.2-1.9,3.9-4,4.2-7c0.2-2.5-0.6-5.1-2.1-7.1c-3-4.1-8.2-6.2-13.1-4.5c-2.7,0.9-5.1,2.7-6.6,5.2
				c-0.7,1.2-0.3,2.7,0.9,3.4C207.1,197.2,208.7,196.8,209.4,195.7L209.4,195.7z"/>
		</g>
	</g>
	<g>
		<path class="st0" d="M195.5,201.7c2.5,0.7,4.3,3.3,4.1,5.9c0,0.8,0.3,1.9,1,1.5"/>
		<g>
			<path d="M194.8,204.2c0.2,0.1,0.4,0.1,0.6,0.2C195.2,204.3,195,204.2,194.8,204.2c0.4,0.1,0.8,0.4,1.2,0.7
				c-0.2-0.1-0.3-0.3-0.5-0.4c0.4,0.3,0.8,0.7,1.1,1.1c-0.1-0.2-0.3-0.3-0.4-0.5c0.3,0.4,0.6,0.9,0.8,1.4c-0.1-0.2-0.2-0.4-0.3-0.6
				c0.2,0.5,0.3,0.9,0.4,1.4c0-0.2-0.1-0.4-0.1-0.7c0.1,0.9,0,1.9,0.3,2.8c0.3,0.8,0.7,1.5,1.5,2c0.9,0.6,2.1,0.5,3,0
				c1.1-0.6,1.6-2.3,0.9-3.4c-0.7-1.2-2.2-1.6-3.4-0.9c0,0,0,0-0.1,0c0.2-0.1,0.4-0.2,0.6-0.3c0,0-0.1,0-0.1,0
				c0.2,0,0.4-0.1,0.7-0.1c0,0-0.1,0-0.1,0c0.2,0,0.4,0.1,0.7,0.1c0,0,0,0-0.1,0c0.2,0.1,0.4,0.2,0.6,0.3c0,0-0.1,0-0.1-0.1
				c0.2,0.1,0.3,0.3,0.5,0.4c-0.1,0-0.1-0.1-0.1-0.1c0.1,0.2,0.3,0.3,0.4,0.5c-0.1-0.1-0.1-0.2-0.2-0.3c0.1,0.2,0.2,0.4,0.3,0.6
				c-0.1-0.2-0.1-0.4-0.2-0.6c0,0.2,0.1,0.4,0.1,0.7c0-0.3,0-0.7,0-1c0-0.6-0.1-1.1-0.2-1.7c-0.2-0.9-0.6-1.8-1.1-2.5
				c-1.1-1.7-2.7-3-4.7-3.6c-1.3-0.4-2.8,0.4-3.1,1.7C192.8,202.4,193.5,203.8,194.8,204.2L194.8,204.2z"/>
		</g>
	</g>
	<g>
		<path class="st0" d="M210.6,209.6c-1.1-2.8,0.1-6.3,2.6-7.8"/>
		<g>
			<path d="M213,209c-0.2-0.4-0.3-0.9-0.3-1.3c0,0.2,0.1,0.4,0.1,0.7c-0.1-0.6-0.1-1.1,0-1.7c0,0.2-0.1,0.4-0.1,0.7
				c0.1-0.6,0.2-1.2,0.5-1.8c-0.1,0.2-0.2,0.4-0.3,0.6c0.2-0.6,0.5-1.1,0.9-1.6c-0.1,0.2-0.3,0.3-0.4,0.5c0.3-0.4,0.7-0.7,1.1-1.1
				c-0.2,0.1-0.3,0.3-0.5,0.4c0.2-0.1,0.3-0.3,0.5-0.4c1.1-0.7,1.6-2.3,0.9-3.4c-0.7-1.1-2.2-1.6-3.4-0.9c-1.8,1.2-3.1,2.9-3.8,4.9
				c-0.6,1.8-0.6,4,0,5.8c0.2,0.6,0.6,1.1,1.1,1.5c0.5,0.3,1.3,0.4,1.9,0.3C212.4,211.7,213.5,210.3,213,209L213,209z"/>
		</g>
	</g>
	<g>
		<path class="st0" d="M217.7,138.4c0-9.3-0.1-18.7-0.1-28c0-1.2,0-2.4-0.5-3.5c-1.2-2.9-4.8-3.7-7.8-4.7c-7.1-2.3-13-7.9-15.9-14.8
			c4.1,1.6,9.7,2.8,12.2-0.8c2.5-3.7-0.7-8.4-3.6-11.8c-5.6-6.7-10.5-14.1-14.4-22c6.9,8,19.3,8.5,27.6,15.1
			c9.9,7.8,11.5,22.2,18.7,32.5c-1-8.2-1.7-16.4-2-24.7c5.6,7.5,11.5,16.6,8.7,25.6c-0.8,2.7-2.4,5.2-3.6,7.8
			c-3.2,7.6-2.1,16.8,2.9,23.4c-4.1,6.4-13,9.3-20.1,6.5"/>
		<g>
			<path d="M220.2,138.4c0-4.9,0-9.8-0.1-14.7c0-2.5,0-5.1,0-7.6c0-2.4,0.1-4.8-0.1-7.2c-0.2-2.2-0.9-4.2-2.6-5.7
				c-1.4-1.3-3.2-2-5-2.6c-3.4-1.2-6.6-2.3-9.5-4.6c-3.3-2.6-5.8-6-7.4-9.8c-0.9,1.2-1.9,2.4-2.8,3.7c3.1,1.2,6.5,2,9.8,1.5
				c3.6-0.6,6.3-3.7,6.5-7.3c0.2-3.9-2.4-7.4-4.7-10.3c-2.6-3.2-5.1-6.3-7.3-9.7c-2.6-4-5-8.1-7.2-12.3c-1.3,1-2.6,2-3.9,3
				c6.1,7,15.7,8.5,23.6,12.6c3.9,2,7,4.9,9.4,8.5c2.4,3.7,4.1,7.8,5.8,11.9c2,4.8,4.1,9.7,7.1,14.1c0.6,0.9,1.7,1.5,2.8,1.1
				c1-0.3,2-1.3,1.8-2.4c-1-8.2-1.7-16.4-2-24.7c-1.6,0.4-3.1,0.8-4.7,1.3c4.5,6,10.2,13.8,8.9,21.8c-0.7,4.1-3.3,7.4-4.6,11.3
				c-1.2,3.6-1.5,7.5-1.1,11.3c0.6,4.5,2.1,8.8,4.8,12.4c0-0.8,0-1.7,0-2.5c-3.6,5.6-11.1,7.7-17.2,5.3c-1.3-0.5-2.7,0.5-3.1,1.7
				c-0.4,1.4,0.5,2.6,1.7,3.1c8.2,3.2,18.1-0.3,22.9-7.6c0.4-0.7,0.5-1.9,0-2.5c-4.4-5.9-5.6-13.6-3-20.5c1.5-3.9,3.9-7.3,4.5-11.5
				c0.6-4.1-0.3-8.2-1.9-12c-1.9-4.6-4.7-8.7-7.6-12.6c-0.7-0.9-1.7-1.5-2.8-1.1c-1,0.3-1.9,1.3-1.8,2.4c0.3,8.2,1,16.5,2,24.7
				c1.6-0.4,3.1-0.8,4.7-1.3c-5.3-7.6-7.4-16.8-12.2-24.7c-2.4-4-5.5-7.6-9.5-10.1c-3.9-2.5-8.4-4.1-12.7-5.7
				c-4.5-1.8-9.1-3.8-12.3-7.5c-2-2.2-5.1,0.6-3.9,3c2.1,4.3,4.5,8.4,7.2,12.3c2.6,3.9,5.5,7.4,8.3,11c1.5,1.9,4.6,6.2,2.1,8.2
				c-1.1,0.9-2.6,0.9-4.1,0.7c-1.7-0.2-3.3-0.8-4.9-1.4c-0.9-0.4-2.1,0.2-2.6,0.9c-0.7,0.9-0.6,1.8-0.2,2.8c3,7,8.9,12.6,16,15.4
				c1.6,0.6,3.3,1,4.9,1.7c1.1,0.4,2.3,1.1,2.8,2.2c0.3,0.9,0.2,2,0.2,2.9c0,1.3,0,2.6,0,3.9c0,2.4,0,4.8,0,7.1c0,5.5,0,11,0.1,16.5
				C215.2,141.7,220.2,141.7,220.2,138.4L220.2,138.4z"/>
		</g>
	</g>
	<g>
		<path class="st0" d="M300.7,302.1c5.8-0.7,11.5-2.8,16.4-6.1"/>
		<g>
			<path d="M300.7,304.6c6.3-0.7,12.4-2.8,17.6-6.4c1.1-0.8,1.6-2.2,0.9-3.4c-0.6-1.1-2.3-1.7-3.4-0.9c-1.2,0.8-2.4,1.5-3.7,2.2
				c-0.7,0.3-1.4,0.7-2.1,1c-0.4,0.2-0.9,0.4-1.5,0.6c-1.3,0.5-2.7,0.9-4.1,1.2c-0.6,0.2-1.3,0.3-1.9,0.4c-0.8,0.1-1.3,0.2-1.9,0.3
				c-1.3,0.2-2.6,1-2.5,2.5C298.3,303.3,299.3,304.7,300.7,304.6L300.7,304.6z"/>
		</g>
	</g>
	<g>
		<path class="st0" d="M308.6,315c5.3,0.3,10.6-1.6,14.4-5.3c0.4-0.4,0.6-1.3,0-1.3"/>
		<g>
			<path d="M308.6,317.5c3.9,0.2,7.7-0.7,11.1-2.4c1.7-0.9,3.3-2,4.7-3.3c0.8-0.8,1.4-1.7,1.5-2.9c0.1-1.7-1.2-2.9-2.9-3
				c-1.3-0.1-2.6,1.2-2.5,2.5c0.1,1.4,1.1,2.4,2.5,2.5c0,0,0.1,0,0.1,0c-0.4-0.1-0.8-0.2-1.3-0.3c-0.3-0.7-0.6-1.5-0.9-2.2
				c0,0,0,0.1,0,0.1c0-0.2,0.5-0.7,0.2-0.5c-0.2,0.2-0.5,0.4-0.7,0.6c-0.1,0.1-0.3,0.2-0.4,0.4c0.2-0.2,0.1-0.1,0,0
				c-0.2,0.2-0.5,0.4-0.8,0.5c-0.5,0.4-1.1,0.7-1.7,1c-0.3,0.2-0.6,0.3-0.9,0.5c-0.1,0.1-0.3,0.1-0.4,0.2c0.3-0.1,0,0-0.2,0.1
				c-1.2,0.5-2.5,0.8-3.8,1c0,0-0.5,0.1-0.2,0c0.3,0-0.2,0-0.2,0c-0.3,0-0.7,0.1-1,0.1c-0.7,0-1.4,0-2.1,0c-1.3-0.1-2.6,1.2-2.5,2.5
				C306.2,316.4,307.2,317.4,308.6,317.5L308.6,317.5z"/>
		</g>
	</g>
	<g>
		<path class="st0" d="M312.8,330.7c7.5,0.2,15-2.7,20.3-8c0.5-0.5,0.9-1.5,0.2-1.8"/>
		<g>
			<path d="M312.8,333.2c5,0.1,10-1,14.5-3.3c2.2-1.1,4.2-2.5,6.1-4.1c1-0.9,2.1-1.8,2.5-3.1c0.5-1.5,0.1-3.1-1.4-4
				c-2.8-1.6-5.3,2.7-2.5,4.3c0.1,0,0.1,0.1,0.2,0.1c-0.3-0.3-0.6-0.6-0.9-0.9c-0.1-0.2,0-1.2-0.1-1.3c0,0,0.1-0.1,0.1-0.1
				c-0.1,0.1-0.2,0.2-0.2,0.2c-0.4,0.3-0.7,0.7-1.1,1c-0.6,0.5-1.3,1-2,1.5c-1.4,1-3,1.9-4.6,2.5c-3.4,1.4-7,2.1-10.6,2
				C309.6,328.1,309.6,333.1,312.8,333.2L312.8,333.2z"/>
		</g>
	</g>
	<g>
		<path class="st0" d="M320.7,350.2c3.8-0.9,7.7-1.8,11.1-3.8c3.4-2,6.2-5.3,6.6-9.2"/>
		<g>
			<path d="M321.4,352.6c4.4-1,8.9-2.1,12.7-4.7c3.7-2.6,6.3-6.2,6.8-10.7c0.2-1.3-1.3-2.5-2.5-2.5c-1.5,0-2.3,1.2-2.5,2.5
				c0-0.3,0,0.1-0.1,0.3c0,0.2-0.1,0.4-0.2,0.6c0,0.2-0.1,0.3-0.2,0.5c0,0-0.2,0.6-0.2,0.4c-0.1,0.1-0.4,0.7-0.5,1
				c-0.2,0.3-0.4,0.7-0.7,1c-0.5,0.7,0.1-0.1-0.2,0.2c-0.1,0.2-0.3,0.3-0.4,0.5c-0.3,0.3-0.6,0.6-1,0.9c-0.7,0.6-1,0.8-1.7,1.3
				c-3.2,2-7.1,2.9-10.8,3.7c-1.3,0.3-2.1,1.8-1.7,3.1C318.7,352.2,320,352.9,321.4,352.6L321.4,352.6z"/>
		</g>
	</g>
	<g>
		<path class="st0" d="M222.9,252.2c12,7.5,25.6,12.3,39.6,14"/>
		<g>
			<path d="M221.6,254.3c12.4,7.7,26.4,12.6,40.9,14.4c1.3,0.2,2.5-1.3,2.5-2.5c0-1.5-1.2-2.3-2.5-2.5c-13.6-1.7-26.7-6.5-38.4-13.7
				C221.4,248.3,218.9,252.6,221.6,254.3L221.6,254.3z"/>
		</g>
	</g>
	<g>
		<path class="st0" d="M216.6,266.8c2.3,3.2,4.9,6.3,8.3,8.3c7.8,4.8,17.8,3.1,26.5,5.8"/>
		<g>
			<path d="M214.5,268c2.1,2.9,4.3,5.7,7.2,7.8c2.7,2.1,5.9,3.5,9.2,4.3c6.5,1.6,13.4,1.2,19.8,3.1c3.1,0.9,4.4-3.9,1.3-4.8
				c-6.1-1.8-12.5-1.6-18.6-2.9c-3-0.6-5.8-1.6-8.3-3.4c-2.5-1.8-4.5-4.3-6.3-6.7c-0.8-1.1-2.2-1.6-3.4-0.9
				C214.3,265.2,213.7,266.9,214.5,268L214.5,268z"/>
		</g>
	</g>
	<g>
		<path class="st0" d="M173,310.1c-9.1,4.5-13.4,6.4-21-2.3c-2.9-3.3-3.4-8.4-1.3-12.2c0.3-0.5,0.6-1,1.2-1.3c0.6-0.2,1.3-0.1,1.9,0
			c4.3,0.9,14.1-1.2,11.8-7.8c0.1,0.4,21.2-2,23.2-2.9c1.5-0.6,3-1.4,4.5-1.2c1.2,0.2,2.2,0.9,3.1,1.7c1.4,1.1,2.8,2.2,4.1,3.2
			c6.4,5,13.5,5.9,19.5,11.2c2-4.8,4.1-9.6,6.1-14.4c0.9-2,1.8-4.1,3.3-5.7c1.5-1.5,3.6-2.4,5.7-3c11.6-3,23.4,4,32.2,12.2
			c5.6,5.2,10.9,11.6,11.7,19.2c2.3,22.5-20.4,54.6-44.5,35.4c-3.6-2.9-6.1-7-9.5-10.2c-8.3-7.9-21.1-22.6-32.8-23.8
			C185.8,307.8,178.9,307.2,173,310.1z"/>
		<g>
			<path d="M171.7,308c-1.8,0.9-3.6,1.8-5.4,2.5c-0.8,0.3-1.6,0.6-2.5,0.8c-0.1,0-1,0.2-0.6,0.1c-0.5,0.1-0.9,0.1-1.4,0.1
				c-1.2,0-2.4-0.5-3.7-1.3c-1.7-1.1-3.4-2.7-4.6-4.4c-1.2-1.7-1.7-3.8-1.6-5.8c0.1-0.8,0.3-1.7,0.6-2.5c0.1-0.2,0.3-0.4,0.3-0.7
				c0-0.1,0.1-0.1,0.1-0.2c0.2-0.2,0-0.1-0.4,0.2c0,0,0.9,0.2,1,0.2c3.3,0.5,6.7-0.1,9.7-1.5c3.7-1.7,5.9-5.5,4.6-9.6
				c-1.4,0.8-2.8,1.6-4.2,2.4c1.3,1.5,4.9,0.6,6.5,0.4c3.4-0.3,6.9-0.7,10.3-1.2c2.7-0.4,5.6-0.6,8.3-1.3c1.7-0.4,3.3-2,5-0.9
				c2.5,1.7,4.7,3.8,7.3,5.5c5.5,3.6,12.1,5.2,17.2,9.5c1.1,0.9,3.2,1.1,3.9-0.5c2-4.6,3.9-9.3,5.9-13.9c0.8-1.9,1.6-4,3-5.5
				c1.4-1.4,3.3-2.1,5.2-2.6c8.1-1.9,16.3,1.8,22.8,6.3c3.5,2.4,6.7,5.2,9.6,8.3c2.7,2.9,5.3,6.1,6.8,9.9c2.3,6,1.5,12.6-0.3,18.5
				c-1.7,5.9-4.7,11.5-8.7,16.1c-3.8,4.3-8.4,7.5-14,8.5c-0.7,0.1-0.8,0.1-1.7,0.2c-0.7,0-1.5,0-2.2,0c-1.4-0.1-2.5-0.3-4-0.7
				c-3.2-0.9-6.2-2.6-8.7-4.8c-3.3-2.8-5.6-6.5-8.7-9.5c-2.5-2.4-4.9-4.9-7.4-7.3c-5.5-5.4-11.2-10.9-18.1-14.5
				c-3.3-1.7-6.6-2.7-10.2-3.1c-4.5-0.4-8.9-0.7-13.3,0.1C175.9,306.3,173.8,307,171.7,308c-1.2,0.6-1.5,2.3-0.9,3.4
				c0.7,1.2,2.2,1.5,3.4,0.9c4.1-1.9,8.7-2,13.1-1.8c3.7,0.2,7,0.4,10.4,2.1c7.1,3.3,12.9,9,18.4,14.4c2.6,2.6,5.3,5.1,7.9,7.7
				c3.2,3.2,5.6,7.1,9.3,9.9c5.7,4.4,12.5,6.9,19.8,5.9c13.2-1.9,22.5-14.8,26.4-26.7c2.1-6.4,3.2-13.8,1.5-20.4
				c-2.3-8.6-9.2-15.5-16-20.9c-7-5.6-15.6-10.3-24.8-10c-4.5,0.1-9.6,1.3-12.8,4.7c-1.6,1.7-2.5,3.8-3.4,5.9c-1,2.4-2,4.8-3.1,7.2
				c-1,2.4-2,4.8-3.1,7.2c1.3-0.2,2.6-0.3,3.9-0.5c-4.6-3.9-10.1-5.8-15.4-8.6c-2.7-1.5-5.1-3.4-7.5-5.3c-2.7-2.1-5.3-3.8-8.8-2.6
				c-1.5,0.5-2,0.9-3.5,1.2c-1.3,0.2-2.6,0.4-3.8,0.6c-1.7,0.2-2.8,0.4-4.8,0.6c-1.7,0.2-3.4,0.4-5.1,0.6c-1.6,0.2-3.2,0.3-4.9,0.5
				c-0.6,0-1.1,0.1-1.7,0.1c-0.2,0-0.4,0-0.5,0c0,0-0.1,0-0.1,0c0,0-0.1,0-0.1,0c0.6,0,1.2,0.2,1.7,0.7c-1.6-1.9-4.9,0.1-4.2,2.4
				c0.1,0.3,0.2,0.5,0.2,0.8c0,0.1,0.1,0.5,0,0.1c0,0.2,0,0.3,0,0.5c-0.1,0.8,0.1-0.5,0,0.2c0,0.1-0.1,0.3-0.1,0.4
				c0.1-0.4,0-0.1,0,0c-0.1,0.2-0.2,0.4-0.3,0.5c0.3-0.4-0.1,0.1-0.2,0.2c-0.1,0.1-0.2,0.2-0.3,0.3c-0.5,0.5,0.2-0.1-0.1,0.1
				c-0.3,0.2-0.6,0.4-0.9,0.5c-0.5,0.3-0.2,0.1-0.8,0.3c-0.4,0.1-0.8,0.3-1.2,0.4c-0.4,0.1-0.8,0.2-1.3,0.3c-0.2,0-0.3,0.1-0.5,0.1
				c0.4-0.1-0.1,0-0.2,0c-0.8,0.1-1.6,0.1-2.4,0c-0.1,0-0.3,0-0.4,0c0.6,0.1,0.2,0,0.1,0c-0.6-0.1-1.3-0.3-2-0.3
				c-1.7,0-3,0.9-3.9,2.3c-2.9,4.5-2.1,10.9,1.1,14.9c2.8,3.5,6.6,6.8,11.2,7.3c4.7,0.5,9.2-2.1,13.3-4.1c1.2-0.6,1.5-2.3,0.9-3.4
				C174.4,307.6,172.9,307.4,171.7,308z"/>
		</g>
	</g>
	<g>
		<g>
			<path d="M214.8,180c-2.3-8.4,6.2-14.6,12.6-17.8c7.8-3.9,16.3-7,21.3-14.7c1.7-2.7-2.6-5.2-4.3-2.5c-3.7,5.9-10.6,8.6-16.6,11.5
				c-6.4,3-12.9,6.7-16.3,13.2c-1.9,3.6-2.6,7.7-1.5,11.7C210.8,184.4,215.7,183.1,214.8,180L214.8,180z"/>
		</g>
	</g>
	<g>
		<path class="st0" d="M201.5,148.6c-3.2-4.8-4.7-10.6-6.1-16.2c6,0.4,11.9,2.7,16.5,6.7"/>
		<g>
			<path d="M203.6,147.4c-3.1-4.7-4.5-10.1-5.9-15.6c-0.8,1.1-1.6,2.1-2.4,3.2c1.5,0.1,2.4,0.2,4,0.6c1.4,0.3,2.7,0.7,4.1,1.3
				c2.1,0.8,5,2.6,6.8,4.1c1,0.9,2.5,1,3.5,0c0.9-0.9,1-2.7,0-3.5c-5.2-4.4-11.5-6.9-18.3-7.4c-1.7-0.1-2.8,1.7-2.4,3.2
				c1.5,5.8,3,11.7,6.4,16.8c0.7,1.1,2.2,1.6,3.4,0.9C203.8,150.1,204.4,148.5,203.6,147.4L203.6,147.4z"/>
		</g>
	</g>
	<g>
		<g>
			<path d="M203.2,225.9c0.7,1,1.4,2.1,2.1,3.1c0.4,0.5,0.7,1.1,1.1,1.6c0.4,0.5,0.7,0.9,1.3,1.3c0.7,0.4,1.5,0.5,2.3,0.3
				c0.9-0.2,1.7-0.9,2.2-1.8c0.3-0.6,0.6-1.4,0.8-2c0.4-1.1,0.7-2.3,0.9-3.5c0.1-0.7,0.1-1.3-0.3-1.9c-0.3-0.5-0.9-1-1.5-1.1
				c-0.6-0.1-1.4-0.1-1.9,0.3c-0.5,0.3-1,0.9-1.1,1.5c-0.3,1.6-0.8,3.2-1.4,4.7c0.1-0.2,0.2-0.4,0.3-0.6c-0.1,0.2-0.2,0.4-0.3,0.5
				c0.1-0.2,0.3-0.3,0.4-0.5c-0.1,0.1-0.1,0.2-0.2,0.2c0.2-0.1,0.3-0.3,0.5-0.4c-0.1,0-0.1,0.1-0.2,0.1c0.2-0.1,0.4-0.2,0.6-0.3
				c0,0-0.1,0-0.1,0c0.2,0,0.4-0.1,0.7-0.1c0,0-0.1,0-0.1,0c0.2,0,0.4,0.1,0.7,0.1c-0.1,0-0.1,0-0.2-0.1c0.2,0.1,0.4,0.2,0.6,0.3
				c0,0,0,0-0.1,0c0.2,0.1,0.3,0.3,0.5,0.4c-0.1-0.1-0.2-0.2-0.2-0.2c0.1,0.2,0.3,0.3,0.4,0.5c-1.1-1.5-2.1-3.2-3.2-4.7
				c-0.4-0.5-0.8-1-1.5-1.1c-0.6-0.2-1.4-0.1-1.9,0.3c-0.5,0.3-1,0.9-1.1,1.5C202.8,224.6,202.8,225.4,203.2,225.9L203.2,225.9z"/>
		</g>
	</g>
	<g>
		<g>
			<path d="M213.5,226.4c1,0.7,1.9,1.5,2.9,2.2c0.4,0.3,0.9,0.7,1.4,1c0.9,0.5,1.9,0.7,3,0.4c1.6-0.4,2.8-1.7,3.2-3.3
				c0.4-1.4,0.1-2.9-0.4-4.3c-0.2-0.6-0.6-1.2-1.1-1.5c-0.5-0.3-1.3-0.4-1.9-0.3c-1.2,0.4-2.2,1.7-1.7,3.1c0.2,0.6,0.4,1.1,0.5,1.7
				c0-0.2-0.1-0.4-0.1-0.7c0,0.3,0,0.7,0,1c0-0.2,0.1-0.4,0.1-0.7c0,0.2-0.1,0.4-0.2,0.6c0.1-0.2,0.2-0.4,0.3-0.6
				c-0.1,0.2-0.2,0.3-0.3,0.5c0.1-0.2,0.3-0.3,0.4-0.5c-0.1,0.2-0.2,0.3-0.4,0.4c0.2-0.1,0.3-0.3,0.5-0.4c-0.1,0.1-0.3,0.2-0.4,0.2
				c0.2-0.1,0.4-0.2,0.6-0.3c-0.1,0-0.2,0.1-0.4,0.1c0.2,0,0.4-0.1,0.7-0.1c-0.1,0-0.2,0-0.4,0c0.2,0,0.4,0.1,0.7,0.1
				c-0.2,0-0.3-0.1-0.4-0.1c0.2,0.1,0.4,0.2,0.6,0.3c-0.8-0.4-1.5-1-2.2-1.5c-0.8-0.6-1.5-1.1-2.3-1.7c-0.5-0.4-1.4-0.4-1.9-0.3
				c-0.6,0.2-1.2,0.6-1.5,1.1c-0.3,0.6-0.5,1.3-0.3,1.9c0.1,0.2,0.2,0.4,0.3,0.6C212.8,225.8,213.1,226.1,213.5,226.4L213.5,226.4z"
				/>
		</g>
	</g>
	<g>
		<g>
			<path d="M223.7,222.8c0.7,0.8,1.4,1.5,2.2,2.2c0.5,0.4,1,0.9,1.6,1.2c1.1,0.6,2.3,0.6,3.4,0c1.3-0.8,1.7-2.1,2-3.5
				c0.2-1.1,0.4-2.2,0.6-3.2c0.1-0.7,0.1-1.3-0.3-1.9c-0.3-0.5-0.9-1-1.5-1.1c-0.6-0.1-1.4-0.1-1.9,0.3c-0.5,0.3-1,0.9-1.1,1.5
				c-0.2,0.8-0.3,1.7-0.5,2.5c-0.1,0.7-0.2,1.5-0.5,2.1c0.1-0.2,0.2-0.4,0.3-0.6c-0.1,0.1-0.1,0.3-0.2,0.4c0.1-0.2,0.3-0.3,0.4-0.5
				c0,0.1-0.1,0.1-0.1,0.1c0.2-0.1,0.3-0.3,0.5-0.4c-0.1,0.1-0.1,0.1-0.2,0.1c0.2-0.1,0.4-0.2,0.6-0.3c0,0-0.1,0-0.1,0
				c0.2,0,0.4-0.1,0.7-0.1c-0.1,0-0.2,0-0.3,0c0.2,0,0.4,0.1,0.7,0.1c-0.1,0-0.2,0-0.3-0.1c0.2,0.1,0.4,0.2,0.6,0.3
				c-0.2-0.1-0.3-0.2-0.5-0.3c0.2,0.1,0.3,0.3,0.5,0.4c-1.1-0.8-2-1.8-2.9-2.8c-0.4-0.5-1.2-0.7-1.8-0.7c-0.6,0-1.3,0.3-1.8,0.7
				C222.7,220.3,222.7,221.7,223.7,222.8L223.7,222.8z"/>
		</g>
	</g>
	<g>
		<g>
			<path d="M233.1,216.6c1.5,2.4,4.1,4.3,7,4.8c0.6,0.1,1.3,0.1,1.9-0.3c0.5-0.3,1.1-0.9,1.1-1.5c0.4-2.9,0.3-5.8-0.6-8.5
				c-0.2-0.6-0.6-1.2-1.1-1.5c-0.5-0.3-1.3-0.4-1.9-0.3c-1.2,0.4-2.2,1.7-1.7,3.1c0.3,0.9,0.5,1.8,0.6,2.7c0-0.2-0.1-0.4-0.1-0.7
				c0.2,1.4,0.2,2.7,0,4.1c0-0.2,0.1-0.4,0.1-0.7c0,0.1,0,0.3-0.1,0.4c1-0.6,2.1-1.2,3.1-1.7c-0.6-0.1-1.2-0.3-1.8-0.5
				c0.2,0.1,0.4,0.2,0.6,0.3c-0.6-0.3-1.2-0.6-1.8-1c0.2,0.1,0.3,0.3,0.5,0.4c-0.5-0.4-1-0.9-1.5-1.5c0.1,0.2,0.3,0.3,0.4,0.5
				c-0.2-0.2-0.3-0.4-0.4-0.6c-0.7-1.1-2.3-1.6-3.4-0.9C232.9,213.9,232.3,215.4,233.1,216.6L233.1,216.6z"/>
		</g>
	</g>
	<g>
		<g>
			<path d="M241.6,210c1.8,0.9,3.6,1.8,5.4,2.7c0.7,0.4,1.5,0.5,2.2,0.1c0.8-0.3,1.2-0.9,1.4-1.6c0.9-2.3,1.3-4.8,1.1-7.2
				c0-0.7-0.2-1.3-0.7-1.8c-0.4-0.4-1.1-0.8-1.8-0.7c-0.6,0-1.3,0.2-1.8,0.7c-0.4,0.5-0.8,1.1-0.7,1.8c0.1,1,0,2-0.1,3
				c0-0.2,0.1-0.4,0.1-0.7c-0.2,1.2-0.5,2.4-0.9,3.5c1.2-0.5,2.4-1,3.7-1.5c-1.8-0.9-3.6-1.8-5.4-2.7c-0.6-0.3-1.3-0.4-1.9-0.3
				c-0.6,0.2-1.2,0.6-1.5,1.1c-0.3,0.6-0.5,1.3-0.3,1.9C240.7,209.1,241,209.7,241.6,210L241.6,210z"/>
		</g>
	</g>
	<g>
		<g>
			<path d="M229.1,175.3C229.1,175.3,229.1,175.3,229.1,175.3c0.2-0.1,0.3-0.1,0.5-0.2C229.5,175.2,229.3,175.2,229.1,175.3
				c0.3-0.1,0.5-0.2,0.7-0.2c-0.2,0-0.4,0-0.6,0c0.2,0,0.4,0.1,0.7,0.1c-0.2,0-0.4-0.1-0.6-0.2c0.2,0.1,0.4,0.2,0.6,0.3
				c-0.2-0.1-0.5-0.2-0.7-0.4c0.2,0.1,0.3,0.3,0.5,0.4c-0.2-0.2-0.4-0.3-0.5-0.5c0.1,0.2,0.3,0.3,0.4,0.5c-0.1-0.2-0.2-0.4-0.3-0.6
				c0.1,0.2,0.2,0.4,0.3,0.6c-0.1-0.2-0.1-0.4-0.2-0.6c0,0.2,0.1,0.4,0.1,0.7c0-0.2,0-0.3,0-0.5c0,0.2-0.1,0.4-0.1,0.7
				c0-0.1,0-0.1,0-0.2c-0.2,0.4-0.4,0.7-0.6,1.1c0.2-0.2,0.5-0.5,0.7-0.7c-0.2,0.1-0.3,0.3-0.5,0.4c0.3-0.2,0.6-0.4,0.9-0.5
				c-0.2,0.1-0.4,0.2-0.6,0.3c0.2-0.1,0.4-0.1,0.6-0.2c-0.2,0-0.4,0.1-0.7,0.1c0.2,0,0.4,0,0.6,0c-0.2,0-0.4-0.1-0.7-0.1
				c0.2,0,0.3,0.1,0.5,0.1c-0.2-0.1-0.4-0.2-0.6-0.3c0.1,0,0.2,0.1,0.2,0.1c-0.2-0.1-0.3-0.3-0.5-0.4c0.1,0.1,0.1,0.1,0.2,0.2
				c-0.1-0.2-0.3-0.3-0.4-0.5c0.1,0.1,0.1,0.2,0.2,0.3c-0.1-0.2-0.2-0.4-0.3-0.6c0.1,0.1,0.1,0.3,0.1,0.5c0-0.2-0.1-0.4-0.1-0.7
				c0,0.2,0,0.3,0,0.5c0-0.2,0.1-0.4,0.1-0.7c0,0.1-0.1,0.3-0.1,0.4c0.1-0.2,0.2-0.4,0.3-0.6c0,0.1-0.1,0.2-0.1,0.2
				c0.1-0.2,0.3-0.3,0.4-0.5c0,0.1-0.1,0.1-0.2,0.2c0.2-0.1,0.3-0.3,0.5-0.4c-0.1,0-0.1,0.1-0.2,0.1c0.2-0.1,0.4-0.2,0.6-0.3
				c-0.1,0-0.1,0-0.2,0.1c0.2,0,0.4-0.1,0.7-0.1c-0.1,0-0.1,0-0.2,0c-0.3,0-0.7,0.1-1,0.2c-0.3,0.1-0.6,0.3-0.8,0.5
				c-0.4,0.4-0.8,1.1-0.7,1.8c0,0.6,0.2,1.3,0.7,1.8c0.2,0.1,0.3,0.3,0.5,0.4c0.4,0.2,0.8,0.3,1.3,0.3c0.2,0,0.4,0,0.6,0
				c0.4-0.1,0.5-0.1,0.8-0.2c0.2-0.1,0.3-0.1,0.5-0.2c0.2-0.2,0.5-0.3,0.6-0.5c0.6-0.7,1-1.6,1-2.6c0-0.1,0-0.2,0-0.3
				c0-0.3-0.1-0.6-0.1-0.9c0-0.1,0-0.2-0.1-0.2c-0.1-0.3-0.2-0.6-0.4-0.8c-0.3-0.5-0.7-0.9-1.2-1.2c-0.1-0.1-0.1-0.1-0.2-0.1
				c-0.3-0.1-0.6-0.3-0.9-0.4c-0.7-0.1-1.3-0.1-2,0c-0.5,0.1-0.9,0.3-1.3,0.5c-0.4,0.2-0.7,0.4-1,0.7c-0.3,0.2-0.6,0.5-0.9,0.8
				c-0.4,0.4-0.7,0.8-0.8,1.4c-0.1,0.3-0.1,0.6-0.1,1c0,0.4,0.1,0.9,0.2,1.3c0.3,0.8,0.7,1.6,1.3,2.2c0.2,0.2,0.5,0.4,0.8,0.6
				c0.1,0.1,0.2,0.2,0.3,0.2c0.2,0.1,0.4,0.2,0.6,0.3c0.2,0.1,0.4,0.2,0.6,0.2c0.3,0.1,0.7,0.1,1,0.2c0.1,0,0.3,0,0.4,0
				c0.3,0,0.7-0.1,1-0.1c0.3-0.1,0.6-0.2,0.9-0.4c0.3-0.2,0.5-0.4,0.7-0.6c0.2-0.2,0.4-0.5,0.4-0.9c0.2-0.6,0.1-1.4-0.3-1.9
				c-0.3-0.5-0.9-1-1.5-1.1c-0.2,0-0.4-0.1-0.7-0.1C229.9,175,229.5,175.1,229.1,175.3L229.1,175.3z"/>
		</g>
	</g>
	<g>
		<g>
			<path d="M199.4,174.4c0.1,0,0.2-0.1,0.3-0.1C199.8,174.3,199.7,174.3,199.4,174.4c0-0.1,0.7,0,0.2-0.1c-0.5,0,0.2,0,0.1,0.1
				c0,0-0.5-0.3-0.1,0c0.1,0,0.3,0.1,0.4,0.2c-0.2-0.2-0.3-0.2-0.2-0.1c0.1,0.1,0.1,0.1,0.2,0.2c0.1,0.1,0.2,0.2,0.3,0.3
				c0.2,0.2-0.2-0.4,0,0c0.2,0.3,0.3,0.5,0.5,0.8c0.3,0.5-0.1-0.5,0,0.1c0,0.1,0.1,0.3,0.1,0.4c0,0.2,0.1,0.3,0.1,0.5
				c0,0.1,0.1,0.6,0.1,0.3c-0.1-0.3,0,0.2,0,0.3c0,0.2,0,0.4,0,0.6c0,0.2,0,0.4,0,0.5c0,0.3-0.1,0.4,0,0.1c-0.1,0.3-0.1,0.7-0.2,1
				c0,0.1-0.3,0.7-0.1,0.2c-0.1,0.1-0.1,0.3-0.2,0.4c-0.1,0.1-0.2,0.3-0.2,0.4c-0.3,0.5,0.2-0.2,0,0c-0.1,0.1-0.6,0.8-0.7,0.7
				c0.1,0,0.4-0.3,0,0c-0.1,0.1-0.3,0.2-0.4,0.2c-0.1,0-0.2,0.1-0.2,0.1c-0.2,0.1-0.1,0.1,0.2-0.1c0,0-0.3,0.1-0.3,0.1
				c0,0-0.5,0.1-0.5,0.1c0.1,0,0.2,0,0.3,0c-0.1,0-0.2,0-0.4,0c-1.3,0-2.6,1.1-2.5,2.5c0.1,1.3,1.1,2.5,2.5,2.5
				c4.8-0.1,8.1-4.5,8-9.1c-0.1-2.3-0.7-4.4-2.2-6.2c-1.4-1.8-3.8-2.8-6-2.1c-1.3,0.4-2.2,1.8-1.7,3.1
				C196.7,173.9,198,174.8,199.4,174.4L199.4,174.4z"/>
		</g>
	</g>
	<g>
		<g>
			<path d="M166.5,297.5c0.3,0.2,0.6,0.4,0.9,0.6c0.1,0.1,0.2,0.2,0.4,0.2c0.6,0.4-0.2-0.2,0.1,0.1c0.5,0.4,1,0.9,1.5,1.4
				c0.2,0.2,0.4,0.5,0.6,0.7c0.1,0.1,0.2,0.3,0.3,0.4c-0.2-0.3-0.1-0.1,0.1,0.1c0.4,0.6,0.8,1.1,1.1,1.7c0.2,0.3,0.3,0.6,0.4,0.9
				c0,0.1,0.2,0.6,0.1,0.1c0.1,0.1,0.1,0.3,0.2,0.4c0.2,0.6,0.4,1.3,0.6,2c0.1,0.4,0.1,0.7,0.2,1.1c0.1,0.4-0.1-0.6,0,0.1
				c0,0.1,0,0.3,0,0.4c0.1,0.7,0.1,1.4,0,2.2c-0.1,1.3,1.2,2.6,2.5,2.5c1.4-0.1,2.4-1.1,2.5-2.5c0.4-6.7-3.3-13.3-9-16.6
				c-1.1-0.7-2.8-0.3-3.4,0.9C165,295.3,165.3,296.8,166.5,297.5L166.5,297.5z"/>
		</g>
	</g>
	<g>
		<g>
			<path d="M328.1,114.4c10.4-10.2,21.5-19.6,33.2-28.2c1.1-0.8,1.6-2.2,0.9-3.4c-0.6-1.1-2.3-1.7-3.4-0.9
				c-12.1,8.8-23.5,18.5-34.2,28.9C322.3,113.1,325.8,116.7,328.1,114.4L328.1,114.4z"/>
		</g>
	</g>
	<g>
		<g>
			<path d="M286.4,81.3c4.5-12.5,9-24.9,13.5-37.4c0.5-1.3-0.5-2.7-1.7-3.1c-1.4-0.4-2.6,0.5-3.1,1.7c-4.5,12.5-9,24.9-13.5,37.4
				c-0.5,1.3,0.5,2.7,1.7,3.1C284.7,83.4,286,82.6,286.4,81.3L286.4,81.3z"/>
		</g>
	</g>
	<g>
		<g>
			<path d="M138.4,89.9c-11.1-7.8-22.3-15.6-33.4-23.4c-1.1-0.8-2.8-0.2-3.4,0.9c-0.7,1.2-0.2,2.6,0.9,3.4
				c11.1,7.8,22.3,15.6,33.4,23.4c1.1,0.8,2.8,0.2,3.4-0.9C140,92.1,139.5,90.7,138.4,89.9L138.4,89.9z"/>
		</g>
	</g>
	<g>
		<g>
			<path d="M130.5,164.2c-17.5-3.1-35.2-4.7-52.9-4.9c-3.2,0-3.2,5,0,5c17.3,0.2,34.6,1.7,51.6,4.7c1.3,0.2,2.7-0.4,3.1-1.7
				C132.6,166,131.8,164.4,130.5,164.2L130.5,164.2z"/>
		</g>
	</g>
	<g>
		<g>
			<path d="M335.9,161.6c15.2-6.6,30.8-12.2,46.7-16.8c3.1-0.9,1.8-5.7-1.3-4.8c-16.3,4.7-32.3,10.6-47.9,17.3
				c-1.2,0.5-1.5,2.4-0.9,3.4C333.2,162,334.7,162.1,335.9,161.6L335.9,161.6z"/>
		</g>
	</g>
	<g>
		<g>
			<path d="M129.2,243c-19.2,3.8-38.5,7.4-57.8,10.9c-5.5,1-11.1,2-16.6,2.9c-1.3,0.2-2.1,1.9-1.7,3.1c0.4,1.4,1.7,2,3.1,1.7
				c19.3-3.4,38.6-6.9,57.9-10.6c5.5-1.1,11-2.1,16.5-3.2c1.3-0.3,2.1-1.8,1.7-3.1C131.9,243.4,130.5,242.7,129.2,243L129.2,243z"/>
		</g>
	</g>
	<g>
		<g>
			<path d="M252.7,182.5c1.8-2.7,3.6-5.4,5.3-8.1c-1.4,0-2.9,0-4.3,0c0.8,1.2,1.5,2.4,2.3,3.6c1.1,1.7,3.2,1.5,4.3,0
				c2.6-3.5,5.3-7.1,7.9-10.6c-1.6-0.4-3.1-0.8-4.7-1.3c0.4,3.5-0.4,6.7-2.5,9.5c-0.6,0.8-0.4,2.1,0.2,2.8c0.7,0.9,1.6,1,2.6,0.9
				c3.5-0.5,7-1,10.5-1.4c-0.9-1.2-1.9-2.4-2.8-3.7c-0.9,2.2-2.4,3.9-4.5,5c-1.8,1-1.5,4.2,0.6,4.6c3.4,0.7,6.5,1.8,9.5,3.5
				c-0.2-1.3-0.3-2.6-0.5-3.9c-2.8,2.4-5.6,4.8-8.4,7.2c-1,0.9-0.9,2.6,0,3.5c1,1,2.5,0.9,3.5,0c2.8-2.4,5.6-4.8,8.4-7.2
				c1.2-1.1,0.8-3.2-0.5-3.9c-3.3-1.9-6.9-3.3-10.7-4c0.2,1.5,0.4,3,0.6,4.6c2.8-1.5,5.1-3.9,6.3-6.8c0.9-2.1-0.6-4-2.8-3.7
				c-3.5,0.5-7,1-10.5,1.4c0.9,1.2,1.9,2.4,2.8,3.7c2.5-3.4,3.7-7.8,3.2-12c-0.3-2.5-3.1-3.3-4.7-1.3c-2.6,3.5-5.3,7.1-7.9,10.6
				c1.4,0,2.9,0,4.3,0c-0.8-1.2-1.5-2.4-2.3-3.6c-1-1.6-3.3-1.6-4.3,0c-1.8,2.7-3.6,5.4-5.3,8.1C246.6,182.7,251,185.2,252.7,182.5
				L252.7,182.5z"/>
		</g>
	</g>
	<g>
		<g>
			<path d="M220,38.9c-0.1,0.1-0.1,0.2-0.2,0.2c0.2-0.1,0.3-0.3,0.5-0.4C220.2,38.8,220.1,38.8,220,38.9c0.2-0.1,0.4-0.2,0.6-0.2
				c-0.1,0-0.2,0.1-0.4,0.1c0.2,0,0.4-0.1,0.7-0.1c-0.2,0-0.3,0-0.5,0c0.2,0,0.4,0.1,0.7,0.1c-0.2,0-0.3-0.1-0.5-0.1
				c0.2,0.1,0.4,0.2,0.6,0.3c-0.2-0.1-0.3-0.2-0.4-0.3c0.2,0.1,0.3,0.3,0.5,0.4c-0.1-0.1-0.2-0.2-0.3-0.3c0.1,0.2,0.3,0.3,0.4,0.5
				c-0.1-0.1-0.1-0.2-0.2-0.3c0.1,0.2,0.2,0.4,0.3,0.6c0-0.1-0.1-0.2-0.1-0.3c0,0.2,0.1,0.4,0.1,0.7c0,0,0-0.1,0-0.1
				c-0.1,0.4-0.2,0.8-0.3,1.3c0.1-0.3,0.2-0.5,0.4-0.7c-0.1,0.2-0.3,0.3-0.4,0.5c0.2-0.2,0.4-0.4,0.6-0.6c-0.2,0.1-0.3,0.3-0.5,0.4
				c0.2-0.2,0.5-0.3,0.8-0.4c-0.2,0.1-0.4,0.2-0.6,0.3c0.2-0.1,0.4-0.2,0.7-0.2c0.3-0.1,0.6-0.2,0.9-0.4c0.3-0.2,0.5-0.4,0.6-0.7
				c0.1-0.2,0.2-0.4,0.3-0.6c0.1-0.3,0.1-0.7,0-1c0-0.2-0.1-0.4-0.2-0.6c-0.1-0.3-0.3-0.6-0.5-0.8c-0.5-0.4-1.1-0.7-1.8-0.7
				c-1.1,0-2.2,0-3.3,0.1c-0.6,0-1.3,0.3-1.8,0.7c-0.4,0.4-0.8,1.1-0.7,1.8c0,0.6,0.2,1.3,0.7,1.8c0.5,0.4,1.1,0.7,1.8,0.7
				c1.1,0,2.2,0,3.3-0.1c-0.2-1.6-0.4-3.3-0.7-4.9c-0.5,0.1-1,0.3-1.4,0.5c-0.4,0.2-0.8,0.5-1.2,0.9c-0.4,0.3-0.7,0.7-1,1.1
				c-0.1,0.1-0.2,0.2-0.2,0.4c0,0.1-0.1,0.1-0.1,0.2c-0.2,0.4-0.4,0.9-0.3,1.4c0,0.3,0,0.6,0.2,0.9c0.1,0.3,0.2,0.6,0.4,0.9
				c0.4,0.6,0.7,0.9,1.3,1.3c0.7,0.5,1.6,0.7,2.4,0.8c0.4,0,0.9,0,1.3-0.2c0.3-0.1,0.6-0.2,0.9-0.4c0.3-0.2,0.6-0.4,0.8-0.6
				c0.2-0.2,0.4-0.5,0.5-0.8c0.2-0.3,0.2-0.6,0.2-1c0-0.6-0.3-1.3-0.7-1.8c-0.5-0.4-1.1-0.8-1.8-0.7C221.1,38.2,220.4,38.4,220,38.9
				L220,38.9z"/>
		</g>
	</g>
	<g>
		<g>
			<path d="M300.7,107.2c-0.2,0-0.4-0.1-0.5-0.2C300.4,107.1,300.6,107.2,300.7,107.2c-0.1,0-0.3-0.1-0.5-0.3
				c0.2,0.1,0.3,0.3,0.5,0.4c-0.2-0.2-0.4-0.4-0.6-0.6c0.1,0.2,0.3,0.3,0.4,0.5c-0.2-0.3-0.4-0.5-0.5-0.8c0.1,0.2,0.2,0.4,0.3,0.6
				c-0.1-0.3-0.2-0.7-0.3-1c0,0.2,0.1,0.4,0.1,0.7c0-0.3,0-0.6,0-0.8c0,0.2-0.1,0.4-0.1,0.7c0-0.3,0.1-0.5,0.2-0.7
				c-0.1,0.2-0.2,0.4-0.3,0.6c0.1-0.2,0.2-0.4,0.3-0.6c-0.1,0.2-0.3,0.3-0.4,0.5c0.1-0.2,0.3-0.3,0.5-0.5c-0.2,0.1-0.3,0.3-0.5,0.4
				c0.2-0.1,0.3-0.2,0.5-0.3c-0.2,0.1-0.4,0.2-0.6,0.3c0.2-0.1,0.5-0.2,0.7-0.2c-0.2,0-0.4,0.1-0.7,0.1c0.3,0,0.5,0,0.8,0
				c-0.2,0-0.4-0.1-0.7-0.1c0.3,0,0.6,0.1,0.9,0.3c-0.2-0.1-0.4-0.2-0.6-0.3c0.3,0.1,0.5,0.3,0.7,0.4c-0.2-0.1-0.3-0.3-0.5-0.4
				c0.2,0.2,0.4,0.3,0.5,0.5c-0.1-0.2-0.3-0.3-0.4-0.5c0.1,0.2,0.2,0.3,0.3,0.5c-0.1-0.2-0.2-0.4-0.3-0.6c0.1,0.2,0.1,0.4,0.2,0.6
				c0-0.2-0.1-0.4-0.1-0.7c0,0.2,0,0.4,0,0.6c0-0.2,0.1-0.4,0.1-0.7c0,0.2-0.1,0.4-0.2,0.6c0.1-0.2,0.2-0.4,0.3-0.6
				c-0.1,0.2-0.2,0.3-0.3,0.5c0.1-0.2,0.3-0.3,0.4-0.5c-0.1,0.2-0.3,0.3-0.5,0.5c0.2-0.1,0.3-0.3,0.5-0.4c-0.2,0.2-0.4,0.3-0.7,0.4
				c0.2-0.1,0.4-0.2,0.6-0.3c-0.3,0.1-0.6,0.2-0.9,0.2c0.2,0,0.4-0.1,0.7-0.1c-0.2,0-0.5,0-0.7,0c0.2,0,0.4,0.1,0.7,0.1
				c-0.2,0-0.4-0.1-0.6-0.2c0.2,0.1,0.4,0.2,0.6,0.3c-0.2-0.1-0.3-0.2-0.4-0.3c0.2,0.1,0.3,0.3,0.5,0.4c-0.1-0.1-0.3-0.2-0.4-0.4
				c0.1,0.2,0.3,0.3,0.4,0.5c0-0.1-0.1-0.1-0.1-0.2c-0.3-0.5-0.9-1-1.5-1.1c-0.6-0.2-1.4-0.1-1.9,0.3c-0.5,0.3-1,0.9-1.1,1.5
				c-0.1,0.6-0.1,1.3,0.3,1.9c0.6,1,1.7,1.9,2.9,2.1c0.5,0.1,1,0.2,1.6,0.1c0.4,0,0.7-0.1,1.1-0.2c0.4-0.1,0.7-0.3,1.1-0.4
				c0.9-0.4,1.8-1.2,2.3-2.1c0.4-0.7,0.5-1.3,0.6-2.1c0-0.2,0-0.3,0-0.5c0-0.4-0.1-0.7-0.2-1.1c-0.4-1.2-1.2-2.2-2.4-2.9
				c-0.5-0.3-1-0.5-1.5-0.6c-0.5-0.1-1.1-0.2-1.7-0.2c-1.3,0.1-2.6,0.5-3.5,1.5c-0.9,1-1.4,2.2-1.5,3.6c0,0.3,0,0.6,0.1,0.9
				c0,0.3,0.1,0.6,0.2,0.9c0.2,0.6,0.4,1.1,0.7,1.6c0.8,1.2,1.9,2.2,3.4,2.5c0.7,0.1,1.3,0.1,1.9-0.3c0.5-0.3,1-0.9,1.1-1.5
				c0.1-0.6,0.1-1.4-0.3-1.9C301.8,107.8,301.3,107.3,300.7,107.2L300.7,107.2z"/>
		</g>
	</g>
	<g>
		<g>
			<path d="M333.5,193.7c-0.3,0-0.5,0-0.8,0c0.2,0,0.4,0.1,0.7,0.1c-0.3,0-0.5-0.1-0.8-0.2c0.2,0.1,0.4,0.2,0.6,0.3
				c-0.3-0.1-0.5-0.3-0.7-0.4c0.2,0.1,0.3,0.3,0.5,0.4c-0.2-0.2-0.4-0.4-0.6-0.6c0.1,0.2,0.3,0.3,0.4,0.5c-0.2-0.2-0.3-0.4-0.4-0.6
				c0.1,0.2,0.2,0.4,0.3,0.6c0-0.1-0.1-0.2-0.1-0.3c-0.4,0.9-0.8,1.9-1.1,2.8c0.2-0.2,0.5-0.3,0.7-0.4c-0.2,0.1-0.4,0.2-0.6,0.3
				c0.3-0.1,0.6-0.2,0.9-0.2c-0.2,0-0.4,0.1-0.7,0.1c0.3,0,0.6,0,0.9,0c-0.2,0-0.4-0.1-0.7-0.1c0.2,0,0.5,0.1,0.7,0.2
				c-0.5-0.4-1-0.8-1.5-1.1c0,0,0,0,0,0.1c-0.1-0.2-0.2-0.4-0.3-0.6c0,0.1,0.1,0.2,0.1,0.3c0-0.2-0.1-0.4-0.1-0.7c0,0.1,0,0.2,0,0.3
				c0-0.2,0.1-0.4,0.1-0.7c0,0.1,0,0.2-0.1,0.4c0.1-0.2,0.2-0.4,0.3-0.6c-0.1,0.1-0.1,0.3-0.2,0.4c0.1-0.2,0.3-0.3,0.4-0.5
				c-0.1,0.2-0.3,0.3-0.4,0.4c0.2-0.1,0.3-0.3,0.5-0.4c-0.2,0.1-0.3,0.2-0.5,0.3c0.2-0.1,0.4-0.2,0.6-0.3c-0.2,0.1-0.3,0.1-0.5,0.1
				c0.2,0,0.4-0.1,0.7-0.1c-0.1,0-0.3,0-0.4,0c0.2,0,0.4,0.1,0.7,0.1c-0.1,0-0.2,0-0.3-0.1c0.2,0.1,0.4,0.2,0.6,0.3
				c-0.1,0-0.2-0.1-0.3-0.2c0.2,0.1,0.3,0.3,0.5,0.4c-0.1-0.1-0.1-0.1-0.2-0.2c-0.2-0.2-0.5-0.4-0.8-0.5c-0.3-0.2-0.6-0.2-1-0.2
				c-0.3,0-0.7,0.1-1,0.2c-0.3,0.1-0.6,0.3-0.8,0.5c-0.4,0.5-0.8,1.1-0.7,1.8c0,0.2,0.1,0.4,0.1,0.7c0.1,0.4,0.3,0.8,0.6,1.1
				c0.4,0.5,1,0.8,1.6,1c0.3,0.1,0.6,0.1,1,0.2c0.1,0,0.2,0,0.4,0c0.3,0,0.7-0.1,1-0.2c0.3-0.1,0.6-0.2,0.9-0.4
				c0.4-0.2,0.8-0.5,1.1-0.8c0.8-0.7,1.3-1.8,1.3-2.9c0-0.3,0-0.7-0.1-1c0-0.1,0-0.1-0.1-0.2c0-0.1-0.2-0.5-0.3-0.7
				c-0.1-0.2-0.3-0.3-0.4-0.5c-0.3-0.3-0.7-0.5-1.1-0.6c-0.5-0.2-1.1-0.3-1.7-0.3c-0.2,0-0.4,0-0.6,0c-0.4,0-0.8,0.1-1.2,0.2
				c-0.6,0.2-1.2,0.4-1.7,0.8c-0.2,0.1-0.3,0.3-0.5,0.4c-0.2,0.2-0.4,0.5-0.5,0.8c-0.1,0.2-0.2,0.4-0.2,0.6c-0.1,0.3-0.1,0.7,0,1
				c0.4,1.3,1.3,2.4,2.4,3.2c0.2,0.1,0.3,0.2,0.5,0.3c0.4,0.2,0.7,0.3,1.1,0.4c0.4,0.1,0.8,0.1,1.2,0.2c0.2,0,0.4,0,0.6,0
				c0.3,0,0.7-0.1,1-0.2c0.3-0.1,0.6-0.3,0.8-0.5c0.2-0.2,0.4-0.5,0.5-0.8c0.2-0.3,0.2-0.6,0.2-1c0-0.6-0.2-1.3-0.7-1.8
				c-0.2-0.1-0.3-0.3-0.5-0.4C334.4,193.8,333.9,193.7,333.5,193.7L333.5,193.7z"/>
		</g>
	</g>
	<g>
		<g>
			<path d="M161.5,307c-0.2-0.1-0.4-0.2-0.5-0.3c-0.1-0.1-0.5-0.4-0.2-0.2c0.3,0.2-0.2-0.2-0.3-0.3c-0.1-0.1-0.3-0.3-0.4-0.4
				c-0.4-0.4,0.1,0.2-0.1-0.1c-0.1-0.1-0.2-0.3-0.3-0.4c-0.1-0.2-0.2-0.4-0.3-0.5c0-0.1-0.1-0.2-0.1-0.2c-0.2-0.3,0.1,0,0,0.1
				c0-0.1-0.2-0.5-0.2-0.6c0-0.2-0.1-0.3-0.1-0.5c0-0.1,0-0.2-0.1-0.3c-0.1-0.4,0,0.1,0,0.1c0-0.2,0-0.4,0-0.6c0-0.2,0-0.4,0-0.6
				c0-0.1,0-0.2,0-0.3c0-0.3,0,0.2,0,0.2c0.1-0.1,0.1-0.4,0.1-0.6c0.1-0.2,0.1-0.4,0.2-0.6c0.2-0.7,0.2-1.4,0-2.1
				c-0.3-0.9-0.8-1.5-1.6-2c0,0,0,0-0.1,0c0.4,0.2,0.6,0.7,0.4,1.3c0.1,0.9,0.3,1.2-0.4,1.6c-0.4,0.2-1,0.2-1.4,0
				c0.4,0.2-0.1,0-0.1-0.1c0,0,0.2,0.2,0.2,0.2c0.2,0.2,0.3,0.3,0.4,0.5c0.1,0.1,0.2,0.2,0.3,0.3c0,0-0.2-0.3-0.1-0.1
				c0.1,0.2,0.3,0.3,0.4,0.5c0.3,0.4,0.6,0.8,0.8,1.3c0.5,0.8,1,1.7,1.4,2.6c0.1,0.1,0.1,0.3,0.2,0.4c-0.1-0.2-0.1-0.2,0,0
				c0.1,0.3,0.2,0.5,0.3,0.8c0.2,0.5,0.3,0.9,0.4,1.4c0,0.1,0,0.2,0.1,0.3c0.1,0.4,0-0.1,0-0.1c0.1,0.1-0.1,0.6,0,0.7
				c0,0,0.1-0.5,0-0.2c0,0.1,0,0.1,0,0.2c0,0.1,0,0.1,0-0.1c0,0,0-0.1,0.1-0.1c0,0.1-0.1,0.1-0.1,0.2c-0.2,0.2,0.4-0.4,0-0.1
				c1-0.1,2-0.3,3-0.4c-0.2-0.2-0.5-0.3-0.7-0.5c-0.3-0.2,0.3,0.3,0,0c-0.1-0.1-0.3-0.2-0.4-0.3c-0.4-0.4-0.8-0.7-1.2-1.1
				c-0.4-0.4-0.8-0.8-1.2-1.3c-0.2-0.2-0.4-0.5-0.6-0.7c0.3,0.4-0.2-0.2-0.3-0.4c-0.7-0.9-1.2-1.9-1.7-3c-0.1-0.1-0.1-0.2-0.2-0.4
				c0-0.1-0.2-0.6-0.1-0.2c0.1,0.3,0-0.1-0.1-0.2c0-0.1-0.1-0.2-0.1-0.4c-0.2-0.6-0.4-1.2-0.6-1.8c-0.4-1.6-2.3-2.3-3.7-1.5
				c-0.7,0.4-1.4,0.8-2.1,1.1c-1.1,0.6-1.6,2.3-0.9,3.4c0.7,1.2,2.2,1.6,3.4,0.9c0.7-0.4,1.4-0.8,2.1-1.1c-1.2-0.5-2.4-1-3.7-1.5
				c1.5,5.4,4.8,10,9.4,13.1c0.9,0.6,2.2,0.3,3-0.4c2.2-2,1.5-5.2,0.5-7.6c-1-2.6-2.4-4.9-4.1-7.1c-1.1-1.3-2.5-2.4-4.3-2
				c-2.1,0.4-3.4,2.9-2.3,4.8c0.3,0.4,0.5,0.7,0.9,1c0.1,0.1,0.6,0.6,0.1,0.1c-0.2-0.2-0.4-0.7-0.4-1c0-0.1,0.1-0.5,0-0.1
				c0,0.1-0.1,0.2-0.1,0.4c-0.1,0.3-0.1,0.6-0.2,0.9c-0.2,1.3-0.2,2.6,0.1,3.9c0.6,2.6,2.4,5.1,4.8,6.4c1.2,0.6,2.8,0.3,3.4-0.9
				C163,309.3,162.7,307.7,161.5,307L161.5,307z"/>
		</g>
	</g>
	<g>
		<g>
			<path d="M191.8,296.9c1.6,0.5,3.4,0.9,5,0.4c0.9-0.3,1.6-0.7,2.3-1.3c0.3-0.3,0.6-0.7,0.8-1c0.2-0.4,0.4-0.8,0.5-1.2
				c0.1-0.7,0.1-1.3-0.3-1.9c-0.3-0.5-0.9-1-1.5-1.1c-0.6-0.1-1.4-0.1-1.9,0.3c-0.5,0.3-1,0.9-1.1,1.5c0,0.2-0.1,0.3-0.1,0.4
				c0.1-0.2,0.2-0.4,0.3-0.6c-0.1,0.2-0.2,0.3-0.3,0.5c0.1-0.2,0.3-0.3,0.4-0.5c-0.1,0.2-0.3,0.3-0.5,0.5c0.2-0.1,0.3-0.3,0.5-0.4
				c-0.2,0.1-0.4,0.3-0.6,0.4c0.2-0.1,0.4-0.2,0.6-0.3c-0.3,0.1-0.5,0.2-0.8,0.2c0.2,0,0.4-0.1,0.7-0.1c-0.4,0-0.8,0-1.1,0
				c0.2,0,0.4,0.1,0.7,0.1c-0.7-0.1-1.4-0.3-2-0.5c-1.2-0.4-2.8,0.5-3.1,1.7C189.8,295.2,190.5,296.4,191.8,296.9L191.8,296.9z"/>
		</g>
	</g>
</g>
<g>
	<path class="st1" d="M180.1,404c-0.5,0-1-0.1-1.4-0.4c-1.4-0.8-1.9-2.6-1.1-4l14.2-24.5c0.8-1.4,2.6-1.9,4-1.1
		c1.4,0.8,1.9,2.6,1.1,4l-14.2,24.5C182,403.5,181.1,404,180.1,404z"/>
</g>
</svg>
